<svg width="360" height="360" viewBox="0 0 360 360" fill="none" xmlns="http://www.w3.org/2000/svg">
<rect width="360" height="360" fill="#29231E"/>
<path d="M58.3333 45.5H45.5V58.3333H58.3333V45.5Z" stroke="#FFD59B" stroke-width="2" stroke-linecap="round" stroke-linejoin="round"/>
<path d="M78.5 45.5H65.6666V58.3333H78.5V45.5Z" stroke="#FFD59B" stroke-width="2" stroke-linecap="round" stroke-linejoin="round"/>
<path d="M78.5 65.6665H65.6666V78.4998H78.5V65.6665Z" stroke="#FFD59B" stroke-width="2" stroke-linecap="round" stroke-linejoin="round"/>
<path d="M58.3333 65.6665H45.5V78.4998H58.3333V65.6665Z" stroke="#FFD59B" stroke-width="2" stroke-linecap="round" stroke-linejoin="round"/>
<path d="M302.665 60.32C301.652 60.32 300.812 60.1067 300.145 59.68C299.479 59.24 298.959 58.6667 298.585 57.96C298.212 57.24 297.945 56.4533 297.785 55.6C297.639 54.7467 297.565 53.9 297.565 53.06C297.565 52.22 297.659 51.3667 297.845 50.5C298.045 49.6333 298.352 48.84 298.765 48.12C299.179 47.3867 299.712 46.8 300.365 46.36C301.019 45.9067 301.812 45.68 302.745 45.68C303.719 45.68 304.525 45.9 305.165 46.34C305.819 46.78 306.332 47.36 306.705 48.08C307.092 48.7867 307.365 49.5667 307.525 50.42C307.685 51.2733 307.765 52.12 307.765 52.96C307.765 53.7867 307.672 54.6333 307.485 55.5C307.299 56.3667 307.005 57.1667 306.605 57.9C306.205 58.62 305.679 59.2067 305.025 59.66C304.385 60.1 303.599 60.32 302.665 60.32ZM302.785 59.54C303.359 59.54 303.832 59.36 304.205 59C304.579 58.64 304.872 58.16 305.085 57.56C305.312 56.96 305.472 56.3 305.565 55.58C305.659 54.8467 305.705 54.1133 305.705 53.38C305.705 52.5667 305.659 51.7533 305.565 50.94C305.472 50.1267 305.312 49.38 305.085 48.7C304.859 48.02 304.552 47.4733 304.165 47.06C303.779 46.6467 303.292 46.44 302.705 46.44C302.132 46.44 301.645 46.62 301.245 46.98C300.859 47.34 300.545 47.82 300.305 48.42C300.065 49.02 299.892 49.6867 299.785 50.42C299.679 51.1533 299.625 51.8933 299.625 52.64C299.625 53.2 299.652 53.7933 299.705 54.42C299.759 55.0467 299.852 55.6667 299.985 56.28C300.132 56.88 300.325 57.4267 300.565 57.92C300.805 58.4133 301.105 58.8067 301.465 59.1C301.825 59.3933 302.265 59.54 302.785 59.54ZM313.967 60.32C313.007 60.32 312.214 60.18 311.587 59.9C310.961 59.6067 310.494 59.2467 310.187 58.82C309.894 58.3933 309.747 57.9867 309.747 57.6C309.747 57.2933 309.827 57.04 309.987 56.84C310.147 56.6267 310.374 56.5133 310.667 56.5C310.907 56.4867 311.094 56.5333 311.227 56.64C311.374 56.7333 311.474 56.8533 311.527 57C311.581 57.1467 311.607 57.28 311.607 57.4C311.607 57.5333 311.587 57.6667 311.547 57.8C311.507 57.9333 311.454 58.0667 311.387 58.2C311.521 58.6533 311.821 58.98 312.287 59.18C312.767 59.38 313.281 59.48 313.827 59.48C314.774 59.48 315.527 59.22 316.087 58.7C316.661 58.18 316.947 57.4267 316.947 56.44C316.947 55.8533 316.854 55.3 316.667 54.78C316.481 54.2467 316.134 53.8133 315.627 53.48C315.121 53.1467 314.381 52.9933 313.407 53.02C313.301 53.02 313.187 53.0267 313.067 53.04C312.947 53.04 312.814 53.0467 312.667 53.06V52.16C312.814 52.16 312.954 52.16 313.087 52.16C313.221 52.16 313.354 52.16 313.487 52.16C314.194 52.16 314.747 52 315.147 51.68C315.547 51.36 315.834 50.98 316.007 50.54C316.181 50.1 316.267 49.6933 316.267 49.32C316.267 48.7733 316.194 48.2867 316.047 47.86C315.914 47.42 315.674 47.08 315.327 46.84C314.981 46.5867 314.501 46.46 313.887 46.46C313.287 46.46 312.774 46.62 312.347 46.94C311.921 47.2467 311.654 47.5667 311.547 47.9C311.667 48.0333 311.747 48.1667 311.787 48.3C311.841 48.4333 311.867 48.5733 311.867 48.72C311.867 48.8267 311.834 48.9533 311.767 49.1C311.714 49.2333 311.621 49.3467 311.487 49.44C311.354 49.5333 311.174 49.58 310.947 49.58C310.667 49.58 310.454 49.48 310.307 49.28C310.161 49.08 310.087 48.84 310.087 48.56C310.087 48.1867 310.234 47.78 310.527 47.34C310.821 46.8867 311.267 46.5 311.867 46.18C312.481 45.8467 313.247 45.68 314.167 45.68C314.887 45.68 315.554 45.7933 316.167 46.02C316.781 46.2467 317.274 46.62 317.647 47.14C318.021 47.6467 318.207 48.32 318.207 49.16C318.207 49.5733 318.101 49.9933 317.887 50.42C317.687 50.8333 317.347 51.22 316.867 51.58C316.401 51.94 315.754 52.2467 314.927 52.5C316.194 52.6333 317.187 53.04 317.907 53.72C318.641 54.4 319.007 55.26 319.007 56.3C319.007 57.2067 318.767 57.96 318.287 58.56C317.821 59.1467 317.201 59.5867 316.427 59.88C315.667 60.1733 314.847 60.32 313.967 60.32Z" fill="white" fill-opacity="0.6"/>
<line x1="40" y1="249.5" x2="320" y2="249.5" stroke="white" stroke-opacity="0.1"/>
<path d="M51.1 290V289.34C51.6067 289.313 51.9533 289.2 52.14 289C52.3267 288.787 52.4267 288.5 52.44 288.14C52.4667 287.767 52.48 287.347 52.48 286.88V278.24C52.48 277.973 52.4867 277.72 52.5 277.48C52.5133 277.227 52.5267 277 52.54 276.8C52.3 276.813 52.06 276.827 51.82 276.84C51.58 276.853 51.34 276.867 51.1 276.88V276C51.8467 275.987 52.6 275.973 53.36 275.96C54.1333 275.947 54.9067 275.953 55.68 275.98C56.9733 275.993 58.0133 276.147 58.8 276.44C59.6 276.72 60.1867 277.127 60.56 277.66C60.9333 278.18 61.12 278.813 61.12 279.56C61.1333 280.08 61.0333 280.613 60.82 281.16C60.62 281.693 60.2467 282.173 59.7 282.6C59.1667 283.027 58.3933 283.347 57.38 283.56C57.6467 283.747 57.88 283.987 58.08 284.28C58.28 284.573 58.5067 284.913 58.76 285.3L60.12 287.44C60.3467 287.8 60.5667 288.127 60.78 288.42C60.9933 288.7 61.24 288.927 61.52 289.1C61.8 289.26 62.1467 289.34 62.56 289.34V290H60.04C59.6533 289.653 59.3267 289.307 59.06 288.96C58.8067 288.613 58.54 288.22 58.26 287.78L56.92 285.64C56.7467 285.36 56.5467 285.04 56.32 284.68C56.1067 284.307 55.86 283.993 55.58 283.74C55.3667 283.753 55.14 283.76 54.9 283.76C54.6733 283.76 54.4467 283.753 54.22 283.74V287.62C54.22 287.98 54.2133 288.293 54.2 288.56C54.2 288.813 54.1867 289.027 54.16 289.2C54.32 289.187 54.48 289.18 54.64 289.18C54.8 289.167 54.96 289.153 55.12 289.14C55.28 289.127 55.44 289.12 55.6 289.12V290H51.1ZM55.46 283C56.1933 282.973 56.8333 282.853 57.38 282.64C57.94 282.427 58.38 282.087 58.7 281.62C59.02 281.153 59.18 280.54 59.18 279.78C59.18 279.273 59.1067 278.833 58.96 278.46C58.8267 278.073 58.6133 277.753 58.32 277.5C58.0267 277.247 57.6533 277.06 57.2 276.94C56.7467 276.807 56.2133 276.74 55.6 276.74C55.1067 276.74 54.76 276.84 54.56 277.04C54.3733 277.24 54.2667 277.52 54.24 277.88C54.2267 278.227 54.22 278.64 54.22 279.12V282.96C54.4333 282.973 54.6333 282.987 54.82 283C55.02 283.013 55.2333 283.013 55.46 283ZM70.6186 284.82C70.6186 284.233 70.5386 283.813 70.3786 283.56C70.2186 283.307 69.9653 283.153 69.6186 283.1C69.2719 283.047 68.8119 283.033 68.2386 283.06L66.7786 283.12V287.7C66.7786 288.06 66.7719 288.367 66.7586 288.62C66.7586 288.873 66.7453 289.087 66.7186 289.26L70.5386 289.2C71.1253 289.187 71.6319 289.093 72.0586 288.92C72.4853 288.733 72.8186 288.413 73.0586 287.96C73.2986 287.507 73.4186 286.887 73.4186 286.1H74.0986L73.9786 290H63.6586V289.34C64.1653 289.313 64.5119 289.2 64.6986 289C64.8853 288.787 64.9853 288.5 64.9986 288.14C65.0253 287.767 65.0386 287.347 65.0386 286.88V278.24C65.0386 277.973 65.0453 277.72 65.0586 277.48C65.0719 277.227 65.0853 277 65.0986 276.8C64.8586 276.813 64.6186 276.827 64.3786 276.84C64.1386 276.853 63.8986 276.867 63.6586 276.88V276H73.2786L73.3786 279.5H72.7186C72.7186 278.713 72.5986 278.12 72.3586 277.72C72.1186 277.307 71.7919 277.033 71.3786 276.9C70.9786 276.753 70.5253 276.687 70.0186 276.7L68.2986 276.74C67.8053 276.753 67.4519 276.847 67.2386 277.02C67.0253 277.193 66.8919 277.453 66.8386 277.8C66.7986 278.133 66.7786 278.573 66.7786 279.12V282.32L70.5386 282.34L70.3986 280.62H71.2786V284.82H70.6186ZM83.96 280.24C83.92 279.6 83.7667 278.993 83.5 278.42C83.2333 277.847 82.8467 277.38 82.34 277.02C81.8333 276.66 81.1867 276.48 80.4 276.48C79.5733 276.48 78.94 276.713 78.5 277.18C78.06 277.647 77.84 278.193 77.84 278.82C77.84 279.38 78 279.853 78.32 280.24C78.64 280.613 79.0533 280.947 79.56 281.24C80.08 281.52 80.6267 281.793 81.2 282.06C81.7067 282.287 82.2133 282.533 82.72 282.8C83.2267 283.053 83.6867 283.347 84.1 283.68C84.5133 284.013 84.84 284.413 85.08 284.88C85.3333 285.333 85.46 285.88 85.46 286.52C85.46 287.253 85.2733 287.907 84.9 288.48C84.54 289.053 84.0133 289.507 83.32 289.84C82.6267 290.16 81.78 290.32 80.78 290.32C80.18 290.32 79.56 290.233 78.92 290.06C78.28 289.887 77.7133 289.633 77.22 289.3L77.32 290.16H76.28L76.16 285.9H76.94C77.0067 287.073 77.4133 287.967 78.16 288.58C78.9067 289.18 79.8067 289.48 80.86 289.48C81.38 289.48 81.86 289.387 82.3 289.2C82.74 289 83.0867 288.713 83.34 288.34C83.6067 287.967 83.74 287.513 83.74 286.98C83.74 286.38 83.58 285.88 83.26 285.48C82.94 285.08 82.5267 284.733 82.02 284.44C81.5133 284.147 80.9733 283.867 80.4 283.6C79.8933 283.373 79.3933 283.133 78.9 282.88C78.4067 282.627 77.9533 282.34 77.54 282.02C77.14 281.687 76.8133 281.293 76.56 280.84C76.32 280.387 76.2 279.84 76.2 279.2C76.2 278.853 76.26 278.48 76.38 278.08C76.5 277.68 76.7067 277.3 77 276.94C77.3067 276.567 77.72 276.267 78.24 276.04C78.7733 275.8 79.4467 275.68 80.26 275.68C80.7667 275.68 81.3333 275.753 81.96 275.9C82.6 276.033 83.1933 276.3 83.74 276.7L83.66 275.84H84.68V280.24H83.96ZM91.9477 276.66C91.4543 276.673 91.1077 276.787 90.9077 277C90.721 277.213 90.6143 277.5 90.5877 277.86C90.5743 278.22 90.5677 278.64 90.5677 279.12V287.62C90.5677 287.98 90.561 288.293 90.5477 288.56C90.5477 288.813 90.5343 289.027 90.5077 289.2C90.7477 289.187 90.9877 289.173 91.2277 289.16C91.4677 289.147 91.7077 289.133 91.9477 289.12V290H87.4477V289.34C87.9543 289.313 88.301 289.2 88.4877 289C88.6743 288.787 88.7743 288.5 88.7877 288.14C88.8143 287.767 88.8277 287.347 88.8277 286.88V278.24C88.8277 277.973 88.8343 277.72 88.8477 277.48C88.861 277.227 88.8743 277 88.8877 276.8C88.6477 276.813 88.4077 276.827 88.1677 276.84C87.9277 276.853 87.6877 276.867 87.4477 276.88V276H91.9477V276.66ZM93.9069 290V289.08C94.6535 288.027 95.6069 286.667 96.7669 285C97.9402 283.32 99.3535 281.167 101.007 278.54C101.194 278.233 101.387 277.933 101.587 277.64C101.8 277.333 102.034 277.033 102.287 276.74L97.1869 276.82C96.4002 276.847 95.8069 277.12 95.4069 277.64C95.0202 278.16 94.8269 278.993 94.8269 280.14H94.1469L94.2669 276H104.187V276.7L97.0069 287.6C96.7135 288.027 96.4669 288.367 96.2669 288.62C96.0669 288.86 95.8602 289.073 95.6469 289.26L100.507 289.18C101.387 289.167 102.12 288.9 102.707 288.38C103.307 287.847 103.607 287.02 103.607 285.9H104.287L104.167 290H93.9069ZM110.854 276.66C110.361 276.673 110.014 276.787 109.814 277C109.627 277.213 109.521 277.5 109.494 277.86C109.481 278.22 109.474 278.64 109.474 279.12V287.62C109.474 287.98 109.467 288.293 109.454 288.56C109.454 288.813 109.441 289.027 109.414 289.2C109.654 289.187 109.894 289.173 110.134 289.16C110.374 289.147 110.614 289.133 110.854 289.12V290H106.354V289.34C106.861 289.313 107.207 289.2 107.394 289C107.581 288.787 107.681 288.5 107.694 288.14C107.721 287.767 107.734 287.347 107.734 286.88V278.24C107.734 277.973 107.741 277.72 107.754 277.48C107.767 277.227 107.781 277 107.794 276.8C107.554 276.813 107.314 276.827 107.074 276.84C106.834 276.853 106.594 276.867 106.354 276.88V276H110.854V276.66ZM123.993 290.32L116.013 279.6C115.893 279.44 115.773 279.287 115.653 279.14C115.546 278.98 115.433 278.82 115.313 278.66H115.293L115.353 287.22C115.353 287.553 115.353 287.887 115.353 288.22C115.353 288.553 115.34 288.88 115.313 289.2C115.553 289.187 115.793 289.173 116.033 289.16C116.273 289.147 116.513 289.133 116.753 289.12V290H113.093V289.34C113.506 289.34 113.8 289.253 113.973 289.08C114.16 288.893 114.28 288.68 114.333 288.44C114.386 288.187 114.413 287.96 114.413 287.76L114.433 278.14C114.433 277.913 114.433 277.687 114.433 277.46C114.433 277.233 114.433 277.013 114.433 276.8C114.22 276.813 114 276.827 113.773 276.84C113.546 276.853 113.32 276.867 113.093 276.88V276H115.473L122.973 286.04C123.146 286.267 123.313 286.493 123.473 286.72C123.646 286.947 123.82 287.173 123.993 287.4H124.013L124.033 278.24C124.033 277.973 124.04 277.72 124.053 277.48C124.066 277.227 124.08 277 124.093 276.8C123.853 276.813 123.613 276.827 123.373 276.84C123.133 276.853 122.893 276.867 122.653 276.88V276H126.333V276.66C125.84 276.673 125.5 276.787 125.313 277C125.126 277.213 125.026 277.5 125.013 277.86C125 278.22 124.993 278.64 124.993 279.12L124.953 290.32H123.993ZM134.83 290.32C133.497 290.32 132.317 290.04 131.29 289.48C130.263 288.92 129.463 288.113 128.89 287.06C128.317 286.007 128.03 284.753 128.03 283.3C128.03 282.353 128.17 281.433 128.45 280.54C128.743 279.633 129.177 278.813 129.75 278.08C130.337 277.347 131.063 276.767 131.93 276.34C132.81 275.9 133.83 275.68 134.99 275.68C135.47 275.68 135.957 275.727 136.45 275.82C136.943 275.9 137.417 276.027 137.87 276.2C138.337 276.36 138.757 276.553 139.13 276.78L139.05 275.82H140.15V280.4H139.43C139.377 279.56 139.15 278.853 138.75 278.28C138.363 277.693 137.857 277.247 137.23 276.94C136.603 276.633 135.903 276.48 135.13 276.48C134.423 276.48 133.757 276.64 133.13 276.96C132.517 277.267 131.97 277.707 131.49 278.28C131.023 278.84 130.657 279.507 130.39 280.28C130.123 281.053 129.99 281.907 129.99 282.84C129.99 284.093 130.217 285.213 130.67 286.2C131.123 287.187 131.75 287.96 132.55 288.52C133.363 289.08 134.297 289.36 135.35 289.36C135.71 289.36 136.083 289.327 136.47 289.26C136.87 289.193 137.263 289.087 137.65 288.94C138.05 288.78 138.423 288.587 138.77 288.36V285.92C138.77 285.6 138.77 285.28 138.77 284.96C138.77 284.627 138.77 284.3 138.77 283.98C138.543 283.993 138.31 284.007 138.07 284.02C137.83 284.033 137.597 284.047 137.37 284.06V283.18H141.89V283.84C141.517 283.84 141.23 283.94 141.03 284.14C140.83 284.327 140.69 284.56 140.61 284.84C140.53 285.107 140.483 285.373 140.47 285.64C140.457 285.893 140.45 286.087 140.45 286.22V289.28H139.91C139.697 289.28 139.403 289.32 139.03 289.4C138.657 289.48 138.23 289.613 137.75 289.8C137.337 289.96 136.857 290.087 136.31 290.18C135.763 290.273 135.27 290.32 134.83 290.32ZM152.979 290.32C152.392 290.32 151.819 290.247 151.259 290.1C150.699 289.967 150.192 289.747 149.739 289.44C149.299 289.12 148.945 288.713 148.679 288.22C148.412 287.713 148.279 287.107 148.279 286.4C148.279 285.533 148.559 284.767 149.119 284.1C149.692 283.433 150.459 282.893 151.419 282.48C151.072 282.027 150.785 281.607 150.559 281.22C150.332 280.82 150.165 280.427 150.059 280.04C149.952 279.64 149.899 279.233 149.899 278.82C149.912 277.86 150.265 277.1 150.959 276.54C151.652 275.967 152.532 275.68 153.599 275.68C154.279 275.68 154.865 275.807 155.359 276.06C155.865 276.3 156.252 276.633 156.519 277.06C156.799 277.473 156.939 277.947 156.939 278.48C156.939 278.973 156.832 279.447 156.619 279.9C156.405 280.353 156.059 280.793 155.579 281.22C155.099 281.633 154.459 282.047 153.659 282.46C154.019 282.833 154.412 283.247 154.839 283.7C155.279 284.153 155.719 284.6 156.159 285.04C156.599 285.467 156.999 285.853 157.359 286.2C157.425 285.96 157.472 285.733 157.499 285.52C157.539 285.293 157.559 285.093 157.559 284.92C157.559 284.613 157.512 284.313 157.419 284.02C157.339 283.713 157.185 283.46 156.959 283.26C156.745 283.047 156.439 282.933 156.039 282.92V282.26H159.539V283.08L157.879 283C158.092 283.173 158.245 283.4 158.339 283.68C158.432 283.96 158.485 284.287 158.499 284.66C158.512 284.913 158.485 285.24 158.419 285.64C158.365 286.027 158.259 286.433 158.099 286.86C158.245 286.993 158.399 287.14 158.559 287.3C158.732 287.447 158.912 287.6 159.099 287.76C159.699 288.293 160.212 288.693 160.639 288.96C161.079 289.213 161.405 289.34 161.619 289.34V290H159.759C159.639 290 159.365 289.88 158.939 289.64C158.525 289.387 157.972 288.953 157.279 288.34C156.852 288.887 156.285 289.353 155.579 289.74C154.885 290.127 154.019 290.32 152.979 290.32ZM153.219 289.32C154.059 289.347 154.752 289.213 155.299 288.92C155.859 288.613 156.305 288.233 156.639 287.78C156.545 287.687 156.452 287.6 156.359 287.52C156.265 287.427 156.165 287.333 156.059 287.24C155.165 286.36 154.372 285.58 153.679 284.9C152.999 284.22 152.419 283.607 151.939 283.06C151.512 283.313 151.179 283.627 150.939 284C150.699 284.373 150.525 284.747 150.419 285.12C150.325 285.493 150.279 285.82 150.279 286.1C150.279 286.833 150.419 287.433 150.699 287.9C150.992 288.367 151.359 288.713 151.799 288.94C152.252 289.167 152.725 289.293 153.219 289.32ZM153.219 281.98C153.965 281.487 154.519 280.94 154.879 280.34C155.239 279.727 155.419 279.127 155.419 278.54C155.419 277.9 155.252 277.373 154.919 276.96C154.585 276.533 154.112 276.32 153.499 276.32C152.952 276.32 152.492 276.527 152.119 276.94C151.759 277.34 151.579 277.913 151.579 278.66C151.579 279.233 151.732 279.8 152.039 280.36C152.359 280.92 152.752 281.46 153.219 281.98ZM49.88 315V314.34C50.28 314.34 50.5867 314.233 50.8 314.02C51.0133 313.807 51.1867 313.513 51.32 313.14C51.4667 312.767 51.6333 312.333 51.82 311.84L55.94 300.62H56.42L60.88 312C60.9867 312.28 61.1067 312.64 61.24 313.08C61.3733 313.52 61.4267 313.893 61.4 314.2C61.6267 314.187 61.8533 314.173 62.08 314.16C62.3067 314.147 62.5333 314.133 62.76 314.12V315H58.18V314.34C58.6867 314.327 59.02 314.213 59.18 314C59.34 313.787 59.4 313.533 59.36 313.24C59.32 312.947 59.2533 312.68 59.16 312.44L58.46 310.56L53.26 310.68L52.56 312.82C52.4667 313.14 52.38 313.393 52.3 313.58C52.2333 313.767 52.1533 313.973 52.06 314.2C52.3267 314.187 52.5867 314.173 52.84 314.16C53.1067 314.147 53.3667 314.133 53.62 314.12V315H49.88ZM53.56 309.82H58.18L56.76 306C56.6133 305.587 56.46 305.18 56.3 304.78C56.1533 304.367 56.0067 303.953 55.86 303.54H55.82C55.6867 303.913 55.5467 304.287 55.4 304.66C55.2667 305.033 55.1267 305.413 54.98 305.8L53.56 309.82ZM63.6195 314.34C64.1262 314.313 64.4729 314.2 64.6595 314C64.8462 313.787 64.9462 313.5 64.9595 313.14C64.9862 312.767 64.9995 312.347 64.9995 311.88V303.24C64.9995 302.973 65.0062 302.72 65.0195 302.48C65.0329 302.227 65.0462 302 65.0595 301.8C64.8195 301.813 64.5795 301.827 64.3395 301.84C64.0995 301.853 63.8595 301.867 63.6195 301.88V301L68.3395 300.98C69.5395 300.98 70.6395 301.12 71.6395 301.4C72.6395 301.68 73.4995 302.113 74.2195 302.7C74.9529 303.273 75.5129 304.007 75.8995 304.9C76.2995 305.78 76.4995 306.82 76.4995 308.02C76.4995 308.94 76.3395 309.82 76.0195 310.66C75.6995 311.5 75.2195 312.247 74.5795 312.9C73.9395 313.54 73.1395 314.053 72.1795 314.44C71.2329 314.813 70.1329 315 68.8795 315H63.6195V314.34ZM66.7395 312.64C66.7395 313 66.7329 313.307 66.7195 313.56C66.7195 313.813 66.7062 314.027 66.6795 314.2C67.0395 314.213 67.3662 314.227 67.6595 314.24C67.9662 314.24 68.2195 314.24 68.4195 314.24C68.6329 314.24 68.7662 314.24 68.8195 314.24C69.6862 314.24 70.4662 314.08 71.1595 313.76C71.8662 313.44 72.4662 313 72.9595 312.44C73.4662 311.867 73.8529 311.2 74.1195 310.44C74.3995 309.667 74.5395 308.833 74.5395 307.94C74.5395 306.673 74.3062 305.58 73.8395 304.66C73.3862 303.727 72.6862 303.007 71.7395 302.5C70.7929 301.98 69.5862 301.72 68.1195 301.72C67.6262 301.72 67.2795 301.82 67.0795 302.02C66.8929 302.22 66.7862 302.5 66.7595 302.86C66.7462 303.22 66.7395 303.64 66.7395 304.12V312.64ZM78.955 315.32C78.5817 315.32 78.235 315.26 77.915 315.14C77.595 315.033 77.335 314.873 77.135 314.66C76.935 314.447 76.835 314.193 76.835 313.9C76.835 313.633 76.9017 313.4 77.035 313.2C77.1817 312.987 77.4017 312.873 77.695 312.86C78.0283 312.833 78.255 312.927 78.375 313.14C78.5083 313.34 78.575 313.54 78.575 313.74C78.575 313.793 78.5683 313.867 78.555 313.96C78.5417 314.04 78.5217 314.113 78.495 314.18C78.575 314.313 78.7017 314.407 78.875 314.46C79.0483 314.5 79.1817 314.513 79.275 314.5C79.675 314.487 79.9683 314.307 80.155 313.96C80.355 313.613 80.455 313.033 80.455 312.22V303.58C80.455 303.273 80.455 302.973 80.455 302.68C80.455 302.387 80.455 302.093 80.455 301.8C80.1217 301.813 79.7817 301.827 79.435 301.84C79.1017 301.853 78.7617 301.867 78.415 301.88V301H83.735V301.66C83.295 301.66 82.9617 301.747 82.735 301.92C82.5217 302.093 82.375 302.333 82.295 302.64C82.2283 302.933 82.195 303.267 82.195 303.64V310.12C82.195 312 81.9417 313.34 81.435 314.14C80.9283 314.927 80.1017 315.32 78.955 315.32ZM89.4359 301.66C88.9959 301.66 88.6759 301.753 88.4759 301.94C88.2893 302.127 88.1759 302.347 88.1359 302.6C88.0959 302.84 88.0759 303.053 88.0759 303.24V308.28C88.0759 309.027 88.1226 309.753 88.2159 310.46C88.3226 311.153 88.5159 311.78 88.7959 312.34C89.0759 312.9 89.4893 313.347 90.0359 313.68C90.5959 314.013 91.3226 314.18 92.2159 314.18C93.1759 314.18 93.9559 313.953 94.5559 313.5C95.1693 313.047 95.6159 312.42 95.8959 311.62C96.1893 310.82 96.3426 309.9 96.3559 308.86L96.4159 303.24C96.4159 302.973 96.4226 302.72 96.4359 302.48C96.4493 302.227 96.4626 302 96.4759 301.8C96.2359 301.813 95.9959 301.827 95.7559 301.84C95.5293 301.853 95.2959 301.867 95.0559 301.88V301H98.7759V301.66C98.2693 301.673 97.9226 301.787 97.7359 302C97.5493 302.213 97.4426 302.5 97.4159 302.86C97.4026 303.22 97.3893 303.64 97.3759 304.12L97.3359 308.76C97.3359 309.627 97.2426 310.453 97.0559 311.24C96.8693 312.027 96.5626 312.727 96.1359 313.34C95.7226 313.953 95.1693 314.44 94.4759 314.8C93.7959 315.147 92.9559 315.32 91.9559 315.32C90.8893 315.32 89.9893 315.18 89.2559 314.9C88.5359 314.62 87.9559 314.187 87.5159 313.6C87.0893 313.013 86.7826 312.273 86.5959 311.38C86.4093 310.487 86.3159 309.42 86.3159 308.18V304.12C86.3159 303.773 86.3226 303.367 86.3359 302.9C86.3626 302.42 86.3826 302.053 86.3959 301.8C86.1559 301.813 85.9159 301.827 85.6759 301.84C85.4359 301.84 85.1959 301.847 84.9559 301.86V301H89.4359V301.66ZM108.335 305.24C108.295 304.6 108.142 303.993 107.875 303.42C107.608 302.847 107.222 302.38 106.715 302.02C106.208 301.66 105.562 301.48 104.775 301.48C103.948 301.48 103.315 301.713 102.875 302.18C102.435 302.647 102.215 303.193 102.215 303.82C102.215 304.38 102.375 304.853 102.695 305.24C103.015 305.613 103.428 305.947 103.935 306.24C104.455 306.52 105.002 306.793 105.575 307.06C106.082 307.287 106.588 307.533 107.095 307.8C107.602 308.053 108.062 308.347 108.475 308.68C108.888 309.013 109.215 309.413 109.455 309.88C109.708 310.333 109.835 310.88 109.835 311.52C109.835 312.253 109.648 312.907 109.275 313.48C108.915 314.053 108.388 314.507 107.695 314.84C107.002 315.16 106.155 315.32 105.155 315.32C104.555 315.32 103.935 315.233 103.295 315.06C102.655 314.887 102.088 314.633 101.595 314.3L101.695 315.16H100.655L100.535 310.9H101.315C101.382 312.073 101.788 312.967 102.535 313.58C103.282 314.18 104.182 314.48 105.235 314.48C105.755 314.48 106.235 314.387 106.675 314.2C107.115 314 107.462 313.713 107.715 313.34C107.982 312.967 108.115 312.513 108.115 311.98C108.115 311.38 107.955 310.88 107.635 310.48C107.315 310.08 106.902 309.733 106.395 309.44C105.888 309.147 105.348 308.867 104.775 308.6C104.268 308.373 103.768 308.133 103.275 307.88C102.782 307.627 102.328 307.34 101.915 307.02C101.515 306.687 101.188 306.293 100.935 305.84C100.695 305.387 100.575 304.84 100.575 304.2C100.575 303.853 100.635 303.48 100.755 303.08C100.875 302.68 101.082 302.3 101.375 301.94C101.682 301.567 102.095 301.267 102.615 301.04C103.148 300.8 103.822 300.68 104.635 300.68C105.142 300.68 105.708 300.753 106.335 300.9C106.975 301.033 107.568 301.3 108.115 301.7L108.035 300.84H109.055V305.24H108.335ZM122.303 305.22C122.289 304.433 122.209 303.78 122.063 303.26C121.916 302.74 121.656 302.353 121.283 302.1C120.923 301.833 120.396 301.707 119.703 301.72H118.003L117.983 312.62C117.983 312.98 117.976 313.293 117.963 313.56C117.963 313.813 117.949 314.027 117.923 314.2C118.203 314.187 118.476 314.173 118.743 314.16C119.023 314.147 119.303 314.133 119.583 314.12V315H114.883V314.34C115.389 314.313 115.729 314.193 115.903 313.98C116.089 313.767 116.189 313.48 116.203 313.12C116.229 312.747 116.243 312.333 116.243 311.88L116.263 301.74L114.203 301.76C113.363 301.76 112.769 302.04 112.423 302.6C112.076 303.16 111.903 304.033 111.903 305.22H111.163L111.283 301H122.943L123.063 305.22H122.303ZM132.156 315.2C131.569 313.867 130.976 312.54 130.376 311.22C129.776 309.887 129.189 308.54 128.616 307.18C128.429 306.753 128.242 306.327 128.056 305.9C127.882 305.46 127.709 305.02 127.536 304.58C127.376 304.14 127.209 303.7 127.036 303.26C127.036 303.407 127.029 303.553 127.016 303.7C127.016 303.847 127.016 303.993 127.016 304.14C127.002 304.62 126.982 305.2 126.956 305.88C126.942 306.547 126.922 307.267 126.896 308.04C126.869 308.8 126.849 309.567 126.836 310.34C126.822 311.1 126.809 311.82 126.796 312.5C126.782 312.793 126.769 313.087 126.756 313.38C126.756 313.673 126.742 313.947 126.716 314.2C126.969 314.187 127.216 314.173 127.456 314.16C127.709 314.147 127.962 314.133 128.216 314.12V315H124.396V314.34C124.809 314.327 125.109 314.24 125.296 314.08C125.496 313.907 125.622 313.68 125.676 313.4C125.729 313.12 125.762 312.82 125.776 312.5L126.156 303.38C126.169 303.113 126.176 302.847 126.176 302.58C126.189 302.313 126.202 302.053 126.216 301.8C125.976 301.813 125.736 301.827 125.496 301.84C125.256 301.84 125.016 301.847 124.776 301.86V301H127.836L131.276 308.94C131.449 309.34 131.616 309.74 131.776 310.14C131.949 310.54 132.122 310.94 132.296 311.34C132.482 311.74 132.662 312.147 132.836 312.56H132.876C133.022 312.2 133.196 311.773 133.396 311.28C133.596 310.773 133.762 310.34 133.896 309.98C134.482 308.513 135.089 307.047 135.716 305.58C136.356 304.1 136.982 302.573 137.596 301H140.556V301.66C140.222 301.647 139.949 301.713 139.736 301.86C139.522 301.993 139.369 302.22 139.276 302.54C139.182 302.86 139.149 303.293 139.176 303.84L139.696 312.94C139.722 313.167 139.736 313.387 139.736 313.6C139.736 313.813 139.736 314.007 139.736 314.18C139.976 314.167 140.216 314.16 140.456 314.16C140.709 314.147 140.956 314.133 141.196 314.12V315H136.716V314.34C137.129 314.327 137.436 314.227 137.636 314.04C137.836 313.853 137.956 313.587 137.996 313.24C138.049 312.893 138.062 312.467 138.036 311.96L137.636 305.36C137.622 305.147 137.609 304.933 137.596 304.72C137.582 304.507 137.569 304.293 137.556 304.08C137.542 303.867 137.529 303.653 137.516 303.44C137.476 303.533 137.429 303.633 137.376 303.74C137.336 303.847 137.296 303.96 137.256 304.08L132.756 315.2H132.156ZM149.935 309.82C149.935 309.233 149.855 308.813 149.695 308.56C149.535 308.307 149.282 308.153 148.935 308.1C148.588 308.047 148.128 308.033 147.555 308.06L146.095 308.12V312.7C146.095 313.06 146.088 313.367 146.075 313.62C146.075 313.873 146.062 314.087 146.035 314.26L149.855 314.2C150.442 314.187 150.948 314.093 151.375 313.92C151.802 313.733 152.135 313.413 152.375 312.96C152.615 312.507 152.735 311.887 152.735 311.1H153.415L153.295 315H142.975V314.34C143.482 314.313 143.828 314.2 144.015 314C144.202 313.787 144.302 313.5 144.315 313.14C144.342 312.767 144.355 312.347 144.355 311.88V303.24C144.355 302.973 144.362 302.72 144.375 302.48C144.388 302.227 144.402 302 144.415 301.8C144.175 301.813 143.935 301.827 143.695 301.84C143.455 301.853 143.215 301.867 142.975 301.88V301H152.595L152.695 304.5H152.035C152.035 303.713 151.915 303.12 151.675 302.72C151.435 302.307 151.108 302.033 150.695 301.9C150.295 301.753 149.842 301.687 149.335 301.7L147.615 301.74C147.122 301.753 146.768 301.847 146.555 302.02C146.342 302.193 146.208 302.453 146.155 302.8C146.115 303.133 146.095 303.573 146.095 304.12V307.32L149.855 307.34L149.715 305.62H150.595V309.82H149.935ZM166.356 315.32L158.376 304.6C158.256 304.44 158.136 304.287 158.016 304.14C157.91 303.98 157.796 303.82 157.676 303.66H157.656L157.716 312.22C157.716 312.553 157.716 312.887 157.716 313.22C157.716 313.553 157.703 313.88 157.676 314.2C157.916 314.187 158.156 314.173 158.396 314.16C158.636 314.147 158.876 314.133 159.116 314.12V315H155.456V314.34C155.87 314.34 156.163 314.253 156.336 314.08C156.523 313.893 156.643 313.68 156.696 313.44C156.75 313.187 156.776 312.96 156.776 312.76L156.796 303.14C156.796 302.913 156.796 302.687 156.796 302.46C156.796 302.233 156.796 302.013 156.796 301.8C156.583 301.813 156.363 301.827 156.136 301.84C155.91 301.853 155.683 301.867 155.456 301.88V301H157.836L165.336 311.04C165.51 311.267 165.676 311.493 165.836 311.72C166.01 311.947 166.183 312.173 166.356 312.4H166.376L166.396 303.24C166.396 302.973 166.403 302.72 166.416 302.48C166.43 302.227 166.443 302 166.456 301.8C166.216 301.813 165.976 301.827 165.736 301.84C165.496 301.853 165.256 301.867 165.016 301.88V301H168.696V301.66C168.203 301.673 167.863 301.787 167.676 302C167.49 302.213 167.39 302.5 167.376 302.86C167.363 303.22 167.356 303.64 167.356 304.12L167.316 315.32H166.356ZM181.131 305.22C181.117 304.433 181.037 303.78 180.891 303.26C180.744 302.74 180.484 302.353 180.111 302.1C179.751 301.833 179.224 301.707 178.531 301.72H176.831L176.811 312.62C176.811 312.98 176.804 313.293 176.791 313.56C176.791 313.813 176.777 314.027 176.751 314.2C177.031 314.187 177.304 314.173 177.571 314.16C177.851 314.147 178.131 314.133 178.411 314.12V315H173.711V314.34C174.217 314.313 174.557 314.193 174.731 313.98C174.917 313.767 175.017 313.48 175.031 313.12C175.057 312.747 175.071 312.333 175.071 311.88L175.091 301.74L173.031 301.76C172.191 301.76 171.597 302.04 171.251 302.6C170.904 303.16 170.731 304.033 170.731 305.22H169.991L170.111 301H181.771L181.891 305.22H181.131ZM191.304 305.24C191.264 304.6 191.11 303.993 190.844 303.42C190.577 302.847 190.19 302.38 189.684 302.02C189.177 301.66 188.53 301.48 187.744 301.48C186.917 301.48 186.284 301.713 185.844 302.18C185.404 302.647 185.184 303.193 185.184 303.82C185.184 304.38 185.344 304.853 185.664 305.24C185.984 305.613 186.397 305.947 186.904 306.24C187.424 306.52 187.97 306.793 188.544 307.06C189.05 307.287 189.557 307.533 190.064 307.8C190.57 308.053 191.03 308.347 191.444 308.68C191.857 309.013 192.184 309.413 192.424 309.88C192.677 310.333 192.804 310.88 192.804 311.52C192.804 312.253 192.617 312.907 192.244 313.48C191.884 314.053 191.357 314.507 190.664 314.84C189.97 315.16 189.124 315.32 188.124 315.32C187.524 315.32 186.904 315.233 186.264 315.06C185.624 314.887 185.057 314.633 184.564 314.3L184.664 315.16H183.624L183.504 310.9H184.284C184.35 312.073 184.757 312.967 185.504 313.58C186.25 314.18 187.15 314.48 188.204 314.48C188.724 314.48 189.204 314.387 189.644 314.2C190.084 314 190.43 313.713 190.684 313.34C190.95 312.967 191.084 312.513 191.084 311.98C191.084 311.38 190.924 310.88 190.604 310.48C190.284 310.08 189.87 309.733 189.364 309.44C188.857 309.147 188.317 308.867 187.744 308.6C187.237 308.373 186.737 308.133 186.244 307.88C185.75 307.627 185.297 307.34 184.884 307.02C184.484 306.687 184.157 306.293 183.904 305.84C183.664 305.387 183.544 304.84 183.544 304.2C183.544 303.853 183.604 303.48 183.724 303.08C183.844 302.68 184.05 302.3 184.344 301.94C184.65 301.567 185.064 301.267 185.584 301.04C186.117 300.8 186.79 300.68 187.604 300.68C188.11 300.68 188.677 300.753 189.304 300.9C189.944 301.033 190.537 301.3 191.084 301.7L191.004 300.84H192.024V305.24H191.304Z" fill="white"/>
</svg>
