<svg width="20" height="20" viewBox="0 0 20 20" fill="none" xmlns="http://www.w3.org/2000/svg">
<path d="M11.5325 0.925C11.3313 0.723801 11.0924 0.564201 10.8296 0.455312C10.5667 0.346424 10.2849 0.29038 10.0004 0.29038C9.71588 0.29038 9.43413 0.346424 9.17125 0.455312C8.90838 0.564201 8.66952 0.723801 8.46833 0.925L6.81833 2.575C6.61713 2.77619 6.45753 3.01505 6.34864 3.27792C6.23975 3.5408 6.18371 3.82255 6.18371 4.10708C6.18371 4.39162 6.23975 4.67337 6.34864 4.93624C6.45753 5.19912 6.61713 5.43797 6.81833 5.63917L8.46833 7.28917C8.87463 7.69525 9.42556 7.92337 10 7.92337C10.5744 7.92337 11.1254 7.69525 11.5317 7.28917L13.1817 5.63917C13.3829 5.43797 13.5425 5.19912 13.6514 4.93624C13.7602 4.67337 13.8163 4.39162 13.8163 4.10708C13.8163 3.82255 13.7602 3.5408 13.6514 3.27792C13.5425 3.01505 13.3829 2.77619 13.1817 2.575L11.5325 0.925ZM5.64 6.81833C5.4388 6.61713 5.19995 6.45753 4.93707 6.34864C4.6742 6.23976 4.39245 6.18371 4.10791 6.18371C3.82338 6.18371 3.54163 6.23976 3.27875 6.34864C3.01588 6.45753 2.77702 6.61713 2.57583 6.81833L0.92583 8.46833C0.519745 8.87463 0.291626 9.42556 0.291626 10C0.291626 10.5744 0.519745 11.1254 0.92583 11.5317L2.57583 13.1817C2.77702 13.3829 3.01588 13.5425 3.27875 13.6514C3.54163 13.7602 3.82338 13.8163 4.10791 13.8163C4.39245 13.8163 4.6742 13.7602 4.93707 13.6514C5.19995 13.5425 5.4388 13.3829 5.64 13.1817L7.29 11.5317C7.69608 11.1254 7.9242 10.5744 7.9242 10C7.9242 9.42556 7.69608 8.87463 7.29 8.46833L5.64 6.81833ZM11.5325 12.7108C11.3313 12.5096 11.0924 12.35 10.8296 12.2411C10.5667 12.1323 10.2849 12.0762 10.0004 12.0762C9.71588 12.0762 9.43413 12.1323 9.17125 12.2411C8.90838 12.35 8.66952 12.5096 8.46833 12.7108L6.81833 14.3608C6.61713 14.562 6.45753 14.8009 6.34864 15.0638C6.23975 15.3266 6.18371 15.6084 6.18371 15.8929C6.18371 16.1775 6.23975 16.4592 6.34864 16.7221C6.45753 16.985 6.61713 17.2238 6.81833 17.425L8.46833 19.075C8.87463 19.4811 9.42556 19.7092 10 19.7092C10.5744 19.7092 11.1254 19.4811 11.5317 19.075L13.1817 17.425C13.3829 17.2238 13.5425 16.985 13.6514 16.7221C13.7602 16.4592 13.8163 16.1775 13.8163 15.8929C13.8163 15.6084 13.7602 15.3266 13.6514 15.0638C13.5425 14.8009 13.3829 14.562 13.1817 14.3608L11.5325 12.7108ZM17.425 6.81833C17.2238 6.61713 16.985 6.45753 16.7221 6.34864C16.4592 6.23976 16.1775 6.18371 15.8929 6.18371C15.6084 6.18371 15.3266 6.23976 15.0638 6.34864C14.8009 6.45753 14.562 6.61713 14.3608 6.81833L12.7108 8.46833C12.3047 8.87463 12.0766 9.42556 12.0766 10C12.0766 10.5744 12.3047 11.1254 12.7108 11.5317L14.3608 13.1817C14.562 13.3829 14.8009 13.5425 15.0638 13.6514C15.3266 13.7602 15.6084 13.8163 15.8929 13.8163C16.1775 13.8163 16.4592 13.7602 16.7221 13.6514C16.985 13.5425 17.2238 13.3829 17.425 13.1817L19.075 11.5317C19.4811 11.1254 19.7092 10.5744 19.7092 10C19.7092 9.42556 19.4811 8.87463 19.075 8.46833L17.425 6.81833Z" fill="#446150"/>
</svg>
