<svg width="360" height="360" viewBox="0 0 360 360" fill="none" xmlns="http://www.w3.org/2000/svg">
<rect width="360" height="360" fill="#53463D"/>
<path d="M58.3333 45.5H45.5V58.3333H58.3333V45.5Z" stroke="#FFD59B" stroke-width="2" stroke-linecap="round" stroke-linejoin="round"/>
<path d="M78.5 45.5H65.6667V58.3333H78.5V45.5Z" stroke="#FFD59B" stroke-width="2" stroke-linecap="round" stroke-linejoin="round"/>
<path d="M78.5 65.6665H65.6667V78.4998H78.5V65.6665Z" stroke="#FFD59B" stroke-width="2" stroke-linecap="round" stroke-linejoin="round"/>
<path d="M58.3333 65.6665H45.5V78.4998H58.3333V65.6665Z" stroke="#FFD59B" stroke-width="2" stroke-linecap="round" stroke-linejoin="round"/>
<path d="M303.193 60.32C302.179 60.32 301.339 60.1067 300.673 59.68C300.006 59.24 299.486 58.6667 299.113 57.96C298.739 57.24 298.473 56.4533 298.313 55.6C298.166 54.7467 298.093 53.9 298.093 53.06C298.093 52.22 298.186 51.3667 298.373 50.5C298.573 49.6333 298.879 48.84 299.293 48.12C299.706 47.3867 300.239 46.8 300.893 46.36C301.546 45.9067 302.339 45.68 303.273 45.68C304.246 45.68 305.053 45.9 305.693 46.34C306.346 46.78 306.859 47.36 307.233 48.08C307.619 48.7867 307.893 49.5667 308.053 50.42C308.213 51.2733 308.293 52.12 308.293 52.96C308.293 53.7867 308.199 54.6333 308.013 55.5C307.826 56.3667 307.533 57.1667 307.133 57.9C306.733 58.62 306.206 59.2067 305.553 59.66C304.913 60.1 304.126 60.32 303.193 60.32ZM303.313 59.54C303.886 59.54 304.359 59.36 304.733 59C305.106 58.64 305.399 58.16 305.613 57.56C305.839 56.96 305.999 56.3 306.093 55.58C306.186 54.8467 306.233 54.1133 306.233 53.38C306.233 52.5667 306.186 51.7533 306.093 50.94C305.999 50.1267 305.839 49.38 305.613 48.7C305.386 48.02 305.079 47.4733 304.693 47.06C304.306 46.6467 303.819 46.44 303.233 46.44C302.659 46.44 302.173 46.62 301.773 46.98C301.386 47.34 301.073 47.82 300.833 48.42C300.593 49.02 300.419 49.6867 300.313 50.42C300.206 51.1533 300.153 51.8933 300.153 52.64C300.153 53.2 300.179 53.7933 300.233 54.42C300.286 55.0467 300.379 55.6667 300.513 56.28C300.659 56.88 300.853 57.4267 301.093 57.92C301.333 58.4133 301.633 58.8067 301.993 59.1C302.353 59.3933 302.793 59.54 303.313 59.54ZM310.178 60C310.178 59.2933 310.284 58.6667 310.498 58.12C310.724 57.5733 311.024 57.0733 311.398 56.62C311.771 56.1533 312.191 55.7067 312.658 55.28C313.138 54.84 313.624 54.38 314.118 53.9C314.984 53.0733 315.611 52.3067 315.998 51.6C316.384 50.8933 316.578 50.2133 316.578 49.56C316.578 49.0533 316.504 48.5667 316.358 48.1C316.224 47.62 315.978 47.2267 315.618 46.92C315.258 46.6133 314.758 46.46 314.118 46.46C313.571 46.46 313.084 46.6 312.658 46.88C312.231 47.1467 311.944 47.48 311.798 47.88C311.931 48.0133 312.024 48.16 312.078 48.32C312.131 48.4667 312.158 48.6133 312.158 48.76C312.158 48.88 312.124 49.0133 312.058 49.16C312.004 49.3067 311.904 49.4333 311.758 49.54C311.611 49.6467 311.418 49.7 311.178 49.7C310.884 49.6867 310.658 49.5733 310.498 49.36C310.338 49.1467 310.258 48.8933 310.258 48.6C310.258 48.32 310.344 48.0133 310.518 47.68C310.691 47.3333 310.951 47.0133 311.298 46.72C311.658 46.4133 312.098 46.1667 312.618 45.98C313.138 45.78 313.744 45.68 314.438 45.68C314.971 45.68 315.484 45.7467 315.978 45.88C316.484 46 316.938 46.2 317.338 46.48C317.738 46.76 318.051 47.1333 318.278 47.6C318.518 48.0533 318.638 48.62 318.638 49.3C318.638 49.6333 318.564 49.9933 318.418 50.38C318.284 50.7667 318.058 51.1867 317.738 51.64C317.431 52.08 317.031 52.5533 316.538 53.06C316.044 53.5533 315.438 54.0933 314.718 54.68C313.811 55.4267 313.064 56.1333 312.478 56.8C311.904 57.4533 311.571 58.0133 311.478 58.48L315.018 58.58C315.671 58.5933 316.244 58.5933 316.738 58.58C317.244 58.5667 317.638 58.4667 317.918 58.28C318.211 58.08 318.358 57.72 318.358 57.2H318.958L318.838 60H310.178Z" fill="white" fill-opacity="0.6"/>
<line x1="40" y1="249.5" x2="320" y2="249.5" stroke="white" stroke-opacity="0.1"/>
<path d="M49.88 290V289.34C50.28 289.34 50.5867 289.233 50.8 289.02C51.0133 288.807 51.1867 288.513 51.32 288.14C51.4667 287.767 51.6333 287.333 51.82 286.84L55.94 275.62H56.42L60.88 287C60.9867 287.28 61.1067 287.64 61.24 288.08C61.3733 288.52 61.4267 288.893 61.4 289.2C61.6267 289.187 61.8533 289.173 62.08 289.16C62.3067 289.147 62.5333 289.133 62.76 289.12V290H58.18V289.34C58.6867 289.327 59.02 289.213 59.18 289C59.34 288.787 59.4 288.533 59.36 288.24C59.32 287.947 59.2533 287.68 59.16 287.44L58.46 285.56L53.26 285.68L52.56 287.82C52.4667 288.14 52.38 288.393 52.3 288.58C52.2333 288.767 52.1533 288.973 52.06 289.2C52.3267 289.187 52.5867 289.173 52.84 289.16C53.1067 289.147 53.3667 289.133 53.62 289.12V290H49.88ZM53.56 284.82H58.18L56.76 281C56.6133 280.587 56.46 280.18 56.3 279.78C56.1533 279.367 56.0067 278.953 55.86 278.54H55.82C55.6867 278.913 55.5467 279.287 55.4 279.66C55.2667 280.033 55.1267 280.413 54.98 280.8L53.56 284.82ZM74.5819 280.46C74.4485 279.207 74.0085 278.233 73.2619 277.54C72.5285 276.847 71.5819 276.5 70.4219 276.5C69.7152 276.5 69.0485 276.653 68.4219 276.96C67.8085 277.253 67.2685 277.68 66.8019 278.24C66.3352 278.8 65.9685 279.473 65.7019 280.26C65.4352 281.047 65.3019 281.933 65.3019 282.92C65.3019 284.173 65.5419 285.28 66.0219 286.24C66.5019 287.2 67.1485 287.947 67.9619 288.48C68.7752 289.013 69.6752 289.28 70.6619 289.28C71.5285 289.28 72.3819 289.087 73.2219 288.7C74.0619 288.3 74.7485 287.727 75.2819 286.98L75.8019 287.4C75.2285 288.187 74.6085 288.793 73.9419 289.22C73.2752 289.647 72.6085 289.933 71.9419 290.08C71.2885 290.24 70.6885 290.32 70.1419 290.32C69.1419 290.32 68.2219 290.14 67.3819 289.78C66.5552 289.42 65.8352 288.92 65.2219 288.28C64.6219 287.627 64.1552 286.873 63.8219 286.02C63.5019 285.153 63.3419 284.22 63.3419 283.22C63.3419 282.273 63.4819 281.353 63.7619 280.46C64.0552 279.567 64.4885 278.76 65.0619 278.04C65.6352 277.32 66.3552 276.747 67.2219 276.32C68.1019 275.893 69.1219 275.68 70.2819 275.68C71.0285 275.68 71.7352 275.78 72.4019 275.98C73.0685 276.18 73.7085 276.487 74.3219 276.9L74.2219 275.82H75.3019V280.46H74.5819ZM88.5663 280.46C88.4329 279.207 87.9929 278.233 87.2463 277.54C86.5129 276.847 85.5663 276.5 84.4063 276.5C83.6996 276.5 83.0329 276.653 82.4063 276.96C81.7929 277.253 81.2529 277.68 80.7863 278.24C80.3196 278.8 79.9529 279.473 79.6863 280.26C79.4196 281.047 79.2863 281.933 79.2863 282.92C79.2863 284.173 79.5263 285.28 80.0063 286.24C80.4863 287.2 81.1329 287.947 81.9463 288.48C82.7596 289.013 83.6596 289.28 84.6463 289.28C85.5129 289.28 86.3663 289.087 87.2063 288.7C88.0463 288.3 88.7329 287.727 89.2663 286.98L89.7863 287.4C89.2129 288.187 88.5929 288.793 87.9263 289.22C87.2596 289.647 86.5929 289.933 85.9263 290.08C85.2729 290.24 84.6729 290.32 84.1263 290.32C83.1263 290.32 82.2063 290.14 81.3663 289.78C80.5396 289.42 79.8196 288.92 79.2063 288.28C78.6063 287.627 78.1396 286.873 77.8063 286.02C77.4863 285.153 77.3263 284.22 77.3263 283.22C77.3263 282.273 77.4663 281.353 77.7463 280.46C78.0396 279.567 78.4729 278.76 79.0462 278.04C79.6196 277.32 80.3396 276.747 81.2063 276.32C82.0863 275.893 83.1063 275.68 84.2663 275.68C85.0129 275.68 85.7196 275.78 86.3863 275.98C87.0529 276.18 87.6929 276.487 88.3063 276.9L88.2063 275.82H89.2863V280.46H88.5663ZM98.4506 284.82C98.4506 284.233 98.3706 283.813 98.2106 283.56C98.0506 283.307 97.7973 283.153 97.4506 283.1C97.104 283.047 96.644 283.033 96.0706 283.06L94.6106 283.12V287.7C94.6106 288.06 94.604 288.367 94.5906 288.62C94.5906 288.873 94.5773 289.087 94.5506 289.26L98.3706 289.2C98.9573 289.187 99.464 289.093 99.8906 288.92C100.317 288.733 100.651 288.413 100.891 287.96C101.131 287.507 101.251 286.887 101.251 286.1H101.931L101.811 290H91.4906V289.34C91.9973 289.313 92.344 289.2 92.5306 289C92.7173 288.787 92.8173 288.5 92.8306 288.14C92.8573 287.767 92.8706 287.347 92.8706 286.88V278.24C92.8706 277.973 92.8773 277.72 92.8906 277.48C92.904 277.227 92.9173 277 92.9306 276.8C92.6906 276.813 92.4506 276.827 92.2106 276.84C91.9706 276.853 91.7306 276.867 91.4906 276.88V276H101.111L101.211 279.5H100.551C100.551 278.713 100.431 278.12 100.191 277.72C99.9506 277.307 99.624 277.033 99.2106 276.9C98.8106 276.753 98.3573 276.687 97.8506 276.7L96.1306 276.74C95.6373 276.753 95.284 276.847 95.0706 277.02C94.8573 277.193 94.724 277.453 94.6706 277.8C94.6306 278.133 94.6106 278.573 94.6106 279.12V282.32L98.3706 282.34L98.2306 280.62H99.1106V284.82H98.4506ZM111.792 280.24C111.752 279.6 111.599 278.993 111.332 278.42C111.065 277.847 110.679 277.38 110.172 277.02C109.665 276.66 109.019 276.48 108.232 276.48C107.405 276.48 106.772 276.713 106.332 277.18C105.892 277.647 105.672 278.193 105.672 278.82C105.672 279.38 105.832 279.853 106.152 280.24C106.472 280.613 106.885 280.947 107.392 281.24C107.912 281.52 108.459 281.793 109.032 282.06C109.539 282.287 110.045 282.533 110.552 282.8C111.059 283.053 111.519 283.347 111.932 283.68C112.345 284.013 112.672 284.413 112.912 284.88C113.165 285.333 113.292 285.88 113.292 286.52C113.292 287.253 113.105 287.907 112.732 288.48C112.372 289.053 111.845 289.507 111.152 289.84C110.459 290.16 109.612 290.32 108.612 290.32C108.012 290.32 107.392 290.233 106.752 290.06C106.112 289.887 105.545 289.633 105.052 289.3L105.152 290.16H104.112L103.992 285.9H104.772C104.839 287.073 105.245 287.967 105.992 288.58C106.739 289.18 107.639 289.48 108.692 289.48C109.212 289.48 109.692 289.387 110.132 289.2C110.572 289 110.919 288.713 111.172 288.34C111.439 287.967 111.572 287.513 111.572 286.98C111.572 286.38 111.412 285.88 111.092 285.48C110.772 285.08 110.359 284.733 109.852 284.44C109.345 284.147 108.805 283.867 108.232 283.6C107.725 283.373 107.225 283.133 106.732 282.88C106.239 282.627 105.785 282.34 105.372 282.02C104.972 281.687 104.645 281.293 104.392 280.84C104.152 280.387 104.032 279.84 104.032 279.2C104.032 278.853 104.092 278.48 104.212 278.08C104.332 277.68 104.539 277.3 104.832 276.94C105.139 276.567 105.552 276.267 106.072 276.04C106.605 275.8 107.279 275.68 108.092 275.68C108.599 275.68 109.165 275.753 109.792 275.9C110.432 276.033 111.025 276.3 111.572 276.7L111.492 275.84H112.512V280.24H111.792ZM123.14 280.24C123.1 279.6 122.946 278.993 122.68 278.42C122.413 277.847 122.026 277.38 121.52 277.02C121.013 276.66 120.366 276.48 119.58 276.48C118.753 276.48 118.12 276.713 117.68 277.18C117.24 277.647 117.02 278.193 117.02 278.82C117.02 279.38 117.18 279.853 117.5 280.24C117.82 280.613 118.233 280.947 118.74 281.24C119.26 281.52 119.806 281.793 120.38 282.06C120.886 282.287 121.393 282.533 121.9 282.8C122.406 283.053 122.866 283.347 123.28 283.68C123.693 284.013 124.02 284.413 124.26 284.88C124.513 285.333 124.64 285.88 124.64 286.52C124.64 287.253 124.453 287.907 124.08 288.48C123.72 289.053 123.193 289.507 122.5 289.84C121.806 290.16 120.96 290.32 119.96 290.32C119.36 290.32 118.74 290.233 118.1 290.06C117.46 289.887 116.893 289.633 116.4 289.3L116.5 290.16H115.46L115.34 285.9H116.12C116.186 287.073 116.593 287.967 117.34 288.58C118.086 289.18 118.986 289.48 120.04 289.48C120.56 289.48 121.04 289.387 121.48 289.2C121.92 289 122.266 288.713 122.52 288.34C122.786 287.967 122.92 287.513 122.92 286.98C122.92 286.38 122.76 285.88 122.44 285.48C122.12 285.08 121.706 284.733 121.2 284.44C120.693 284.147 120.153 283.867 119.58 283.6C119.073 283.373 118.573 283.133 118.08 282.88C117.586 282.627 117.133 282.34 116.72 282.02C116.32 281.687 115.993 281.293 115.74 280.84C115.5 280.387 115.38 279.84 115.38 279.2C115.38 278.853 115.44 278.48 115.56 278.08C115.68 277.68 115.886 277.3 116.18 276.94C116.486 276.567 116.9 276.267 117.42 276.04C117.953 275.8 118.626 275.68 119.44 275.68C119.946 275.68 120.513 275.753 121.14 275.9C121.78 276.033 122.373 276.3 122.92 276.7L122.84 275.84H123.86V280.24H123.14ZM133.567 290.32C132.301 290.32 131.214 290.107 130.307 289.68C129.401 289.253 128.661 288.687 128.087 287.98C127.527 287.26 127.114 286.467 126.847 285.6C126.581 284.733 126.447 283.867 126.447 283C126.447 282.16 126.587 281.313 126.867 280.46C127.147 279.593 127.574 278.8 128.147 278.08C128.734 277.36 129.461 276.78 130.327 276.34C131.207 275.9 132.234 275.68 133.407 275.68C134.634 275.68 135.694 275.9 136.587 276.34C137.481 276.78 138.214 277.367 138.787 278.1C139.374 278.82 139.807 279.607 140.087 280.46C140.381 281.313 140.527 282.16 140.527 283C140.527 283.827 140.387 284.673 140.107 285.54C139.827 286.393 139.394 287.187 138.807 287.92C138.234 288.64 137.514 289.22 136.647 289.66C135.781 290.1 134.754 290.32 133.567 290.32ZM133.607 289.5C134.434 289.5 135.154 289.327 135.767 288.98C136.381 288.62 136.887 288.147 137.287 287.56C137.701 286.96 138.007 286.3 138.207 285.58C138.421 284.847 138.527 284.113 138.527 283.38C138.527 282.553 138.414 281.733 138.187 280.92C137.961 280.107 137.627 279.367 137.187 278.7C136.747 278.033 136.201 277.5 135.547 277.1C134.907 276.687 134.174 276.48 133.347 276.48C132.521 276.48 131.794 276.66 131.167 277.02C130.554 277.38 130.041 277.86 129.627 278.46C129.227 279.047 128.921 279.707 128.707 280.44C128.507 281.16 128.407 281.893 128.407 282.64C128.407 283.373 128.507 284.14 128.707 284.94C128.921 285.74 129.241 286.487 129.667 287.18C130.094 287.873 130.634 288.433 131.287 288.86C131.941 289.287 132.714 289.5 133.607 289.5ZM142.33 290V289.34C142.837 289.313 143.184 289.2 143.37 289C143.557 288.787 143.657 288.5 143.67 288.14C143.697 287.767 143.71 287.347 143.71 286.88V278.24C143.71 277.973 143.717 277.72 143.73 277.48C143.744 277.227 143.757 277 143.77 276.8C143.53 276.813 143.29 276.827 143.05 276.84C142.81 276.853 142.57 276.867 142.33 276.88V276C143.077 275.987 143.83 275.973 144.59 275.96C145.364 275.947 146.137 275.953 146.91 275.98C148.204 275.993 149.244 276.147 150.03 276.44C150.83 276.72 151.417 277.127 151.79 277.66C152.164 278.18 152.35 278.813 152.35 279.56C152.364 280.08 152.264 280.613 152.05 281.16C151.85 281.693 151.477 282.173 150.93 282.6C150.397 283.027 149.624 283.347 148.61 283.56C148.877 283.747 149.11 283.987 149.31 284.28C149.51 284.573 149.737 284.913 149.99 285.3L151.35 287.44C151.577 287.8 151.797 288.127 152.01 288.42C152.224 288.7 152.47 288.927 152.75 289.1C153.03 289.26 153.377 289.34 153.79 289.34V290H151.27C150.884 289.653 150.557 289.307 150.29 288.96C150.037 288.613 149.77 288.22 149.49 287.78L148.15 285.64C147.977 285.36 147.777 285.04 147.55 284.68C147.337 284.307 147.09 283.993 146.81 283.74C146.597 283.753 146.37 283.76 146.13 283.76C145.904 283.76 145.677 283.753 145.45 283.74V287.62C145.45 287.98 145.444 288.293 145.43 288.56C145.43 288.813 145.417 289.027 145.39 289.2C145.55 289.187 145.71 289.18 145.87 289.18C146.03 289.167 146.19 289.153 146.35 289.14C146.51 289.127 146.67 289.12 146.83 289.12V290H142.33ZM146.69 283C147.424 282.973 148.064 282.853 148.61 282.64C149.17 282.427 149.61 282.087 149.93 281.62C150.25 281.153 150.41 280.54 150.41 279.78C150.41 279.273 150.337 278.833 150.19 278.46C150.057 278.073 149.844 277.753 149.55 277.5C149.257 277.247 148.884 277.06 148.43 276.94C147.977 276.807 147.444 276.74 146.83 276.74C146.337 276.74 145.99 276.84 145.79 277.04C145.604 277.24 145.497 277.52 145.47 277.88C145.457 278.227 145.45 278.64 145.45 279.12V282.96C145.664 282.973 145.864 282.987 146.05 283C146.25 283.013 146.464 283.013 146.69 283ZM159.389 276.66C158.896 276.673 158.549 276.787 158.349 277C158.162 277.213 158.056 277.5 158.029 277.86C158.016 278.22 158.009 278.64 158.009 279.12V287.62C158.009 287.98 158.002 288.293 157.989 288.56C157.989 288.813 157.976 289.027 157.949 289.2C158.189 289.187 158.429 289.173 158.669 289.16C158.909 289.147 159.149 289.133 159.389 289.12V290H154.889V289.34C155.396 289.313 155.742 289.2 155.929 289C156.116 288.787 156.216 288.5 156.229 288.14C156.256 287.767 156.269 287.347 156.269 286.88V278.24C156.269 277.973 156.276 277.72 156.289 277.48C156.302 277.227 156.316 277 156.329 276.8C156.089 276.813 155.849 276.827 155.609 276.84C155.369 276.853 155.129 276.867 154.889 276.88V276H159.389V276.66ZM168.548 284.82C168.548 284.233 168.468 283.813 168.308 283.56C168.148 283.307 167.895 283.153 167.548 283.1C167.202 283.047 166.742 283.033 166.168 283.06L164.708 283.12V287.7C164.708 288.06 164.702 288.367 164.688 288.62C164.688 288.873 164.675 289.087 164.648 289.26L168.468 289.2C169.055 289.187 169.562 289.093 169.988 288.92C170.415 288.733 170.748 288.413 170.988 287.96C171.228 287.507 171.348 286.887 171.348 286.1H172.028L171.908 290H161.588V289.34C162.095 289.313 162.442 289.2 162.628 289C162.815 288.787 162.915 288.5 162.928 288.14C162.955 287.767 162.968 287.347 162.968 286.88V278.24C162.968 277.973 162.975 277.72 162.988 277.48C163.002 277.227 163.015 277 163.028 276.8C162.788 276.813 162.548 276.827 162.308 276.84C162.068 276.853 161.828 276.867 161.588 276.88V276H171.208L171.308 279.5H170.648C170.648 278.713 170.528 278.12 170.288 277.72C170.048 277.307 169.722 277.033 169.308 276.9C168.908 276.753 168.455 276.687 167.948 276.7L166.228 276.74C165.735 276.753 165.382 276.847 165.168 277.02C164.955 277.193 164.822 277.453 164.768 277.8C164.728 278.133 164.708 278.573 164.708 279.12V282.32L168.468 282.34L168.328 280.62H169.208V284.82H168.548ZM181.89 280.24C181.85 279.6 181.696 278.993 181.43 278.42C181.163 277.847 180.776 277.38 180.27 277.02C179.763 276.66 179.116 276.48 178.33 276.48C177.503 276.48 176.87 276.713 176.43 277.18C175.99 277.647 175.77 278.193 175.77 278.82C175.77 279.38 175.93 279.853 176.25 280.24C176.57 280.613 176.983 280.947 177.49 281.24C178.01 281.52 178.556 281.793 179.13 282.06C179.636 282.287 180.143 282.533 180.65 282.8C181.156 283.053 181.616 283.347 182.03 283.68C182.443 284.013 182.77 284.413 183.01 284.88C183.263 285.333 183.39 285.88 183.39 286.52C183.39 287.253 183.203 287.907 182.83 288.48C182.47 289.053 181.943 289.507 181.25 289.84C180.556 290.16 179.71 290.32 178.71 290.32C178.11 290.32 177.49 290.233 176.85 290.06C176.21 289.887 175.643 289.633 175.15 289.3L175.25 290.16H174.21L174.09 285.9H174.87C174.936 287.073 175.343 287.967 176.09 288.58C176.836 289.18 177.736 289.48 178.79 289.48C179.31 289.48 179.79 289.387 180.23 289.2C180.67 289 181.016 288.713 181.27 288.34C181.536 287.967 181.67 287.513 181.67 286.98C181.67 286.38 181.51 285.88 181.19 285.48C180.87 285.08 180.456 284.733 179.95 284.44C179.443 284.147 178.903 283.867 178.33 283.6C177.823 283.373 177.323 283.133 176.83 282.88C176.336 282.627 175.883 282.34 175.47 282.02C175.07 281.687 174.743 281.293 174.49 280.84C174.25 280.387 174.13 279.84 174.13 279.2C174.13 278.853 174.19 278.48 174.31 278.08C174.43 277.68 174.636 277.3 174.93 276.94C175.236 276.567 175.65 276.267 176.17 276.04C176.703 275.8 177.376 275.68 178.19 275.68C178.696 275.68 179.263 275.753 179.89 275.9C180.53 276.033 181.123 276.3 181.67 276.7L181.59 275.84H182.61V280.24H181.89ZM190.631 290V289.34C191.138 289.313 191.485 289.2 191.671 289C191.858 288.787 191.958 288.5 191.971 288.14C191.998 287.767 192.011 287.347 192.011 286.88V278.24C192.011 277.973 192.018 277.72 192.031 277.48C192.045 277.227 192.058 277 192.071 276.8C191.831 276.813 191.591 276.827 191.351 276.84C191.111 276.853 190.871 276.867 190.631 276.88V276C191.378 275.987 192.131 275.973 192.891 275.96C193.665 275.947 194.438 275.953 195.211 275.98C196.505 275.993 197.545 276.147 198.331 276.44C199.131 276.72 199.718 277.127 200.091 277.66C200.465 278.18 200.651 278.813 200.651 279.56C200.665 280.08 200.565 280.613 200.351 281.16C200.151 281.693 199.778 282.173 199.231 282.6C198.698 283.027 197.925 283.347 196.911 283.56C197.178 283.747 197.411 283.987 197.611 284.28C197.811 284.573 198.038 284.913 198.291 285.3L199.651 287.44C199.878 287.8 200.098 288.127 200.311 288.42C200.525 288.7 200.771 288.927 201.051 289.1C201.331 289.26 201.678 289.34 202.091 289.34V290H199.571C199.185 289.653 198.858 289.307 198.591 288.96C198.338 288.613 198.071 288.22 197.791 287.78L196.451 285.64C196.278 285.36 196.078 285.04 195.851 284.68C195.638 284.307 195.391 283.993 195.111 283.74C194.898 283.753 194.671 283.76 194.431 283.76C194.205 283.76 193.978 283.753 193.751 283.74V287.62C193.751 287.98 193.745 288.293 193.731 288.56C193.731 288.813 193.718 289.027 193.691 289.2C193.851 289.187 194.011 289.18 194.171 289.18C194.331 289.167 194.491 289.153 194.651 289.14C194.811 289.127 194.971 289.12 195.131 289.12V290H190.631ZM194.991 283C195.725 282.973 196.365 282.853 196.911 282.64C197.471 282.427 197.911 282.087 198.231 281.62C198.551 281.153 198.711 280.54 198.711 279.78C198.711 279.273 198.638 278.833 198.491 278.46C198.358 278.073 198.145 277.753 197.851 277.5C197.558 277.247 197.185 277.06 196.731 276.94C196.278 276.807 195.745 276.74 195.131 276.74C194.638 276.74 194.291 276.84 194.091 277.04C193.905 277.24 193.798 277.52 193.771 277.88C193.758 278.227 193.751 278.64 193.751 279.12V282.96C193.965 282.973 194.165 282.987 194.351 283C194.551 283.013 194.765 283.013 194.991 283ZM210.15 284.82C210.15 284.233 210.07 283.813 209.91 283.56C209.75 283.307 209.497 283.153 209.15 283.1C208.803 283.047 208.343 283.033 207.77 283.06L206.31 283.12V287.7C206.31 288.06 206.303 288.367 206.29 288.62C206.29 288.873 206.277 289.087 206.25 289.26L210.07 289.2C210.657 289.187 211.163 289.093 211.59 288.92C212.017 288.733 212.35 288.413 212.59 287.96C212.83 287.507 212.95 286.887 212.95 286.1H213.63L213.51 290H203.19V289.34C203.697 289.313 204.043 289.2 204.23 289C204.417 288.787 204.517 288.5 204.53 288.14C204.557 287.767 204.57 287.347 204.57 286.88V278.24C204.57 277.973 204.577 277.72 204.59 277.48C204.603 277.227 204.617 277 204.63 276.8C204.39 276.813 204.15 276.827 203.91 276.84C203.67 276.853 203.43 276.867 203.19 276.88V276H212.81L212.91 279.5H212.25C212.25 278.713 212.13 278.12 211.89 277.72C211.65 277.307 211.323 277.033 210.91 276.9C210.51 276.753 210.057 276.687 209.55 276.7L207.83 276.74C207.337 276.753 206.983 276.847 206.77 277.02C206.557 277.193 206.423 277.453 206.37 277.8C206.33 278.133 206.31 278.573 206.31 279.12V282.32L210.07 282.34L209.93 280.62H210.81V284.82H210.15ZM215.631 289.34C216.138 289.313 216.485 289.2 216.671 289C216.858 288.787 216.958 288.5 216.971 288.14C216.998 287.767 217.011 287.347 217.011 286.88V278.24C217.011 277.973 217.018 277.72 217.031 277.48C217.045 277.227 217.058 277 217.071 276.8C216.831 276.813 216.591 276.827 216.351 276.84C216.111 276.853 215.871 276.867 215.631 276.88V276C216.338 275.987 217.065 275.98 217.811 275.98C218.558 275.967 219.318 275.96 220.091 275.96C221.385 275.96 222.471 276.107 223.351 276.4C224.231 276.693 224.905 277.127 225.371 277.7C225.838 278.273 226.091 278.987 226.131 279.84C226.158 280.36 226.078 280.907 225.891 281.48C225.718 282.04 225.385 282.573 224.891 283.08C224.411 283.573 223.731 283.973 222.851 284.28C221.971 284.587 220.845 284.74 219.471 284.74C219.418 284.74 219.318 284.74 219.171 284.74C219.025 284.74 218.885 284.733 218.751 284.72V287.62C218.751 287.98 218.745 288.293 218.731 288.56C218.731 288.813 218.718 289.027 218.691 289.2C218.905 289.187 219.111 289.173 219.311 289.16C219.511 289.147 219.711 289.14 219.911 289.14C220.125 289.127 220.331 289.113 220.531 289.1V290H215.631V289.34ZM218.751 283.9C219.005 283.927 219.218 283.947 219.391 283.96C219.578 283.96 219.798 283.96 220.051 283.96C220.811 283.96 221.505 283.813 222.131 283.52C222.758 283.213 223.258 282.78 223.631 282.22C224.005 281.66 224.191 280.993 224.191 280.22C224.191 279.593 224.091 279.06 223.891 278.62C223.691 278.167 223.405 277.807 223.031 277.54C222.671 277.26 222.238 277.06 221.731 276.94C221.225 276.807 220.665 276.74 220.051 276.74C219.585 276.74 219.258 276.84 219.071 277.04C218.898 277.24 218.798 277.52 218.771 277.88C218.758 278.227 218.751 278.64 218.751 279.12V283.9ZM225.857 290V289.34C226.257 289.34 226.563 289.233 226.777 289.02C226.99 288.807 227.163 288.513 227.297 288.14C227.443 287.767 227.61 287.333 227.797 286.84L231.917 275.62H232.397L236.857 287C236.963 287.28 237.083 287.64 237.217 288.08C237.35 288.52 237.403 288.893 237.377 289.2C237.603 289.187 237.83 289.173 238.057 289.16C238.283 289.147 238.51 289.133 238.737 289.12V290H234.157V289.34C234.663 289.327 234.997 289.213 235.157 289C235.317 288.787 235.377 288.533 235.337 288.24C235.297 287.947 235.23 287.68 235.137 287.44L234.437 285.56L229.237 285.68L228.537 287.82C228.443 288.14 228.357 288.393 228.277 288.58C228.21 288.767 228.13 288.973 228.037 289.2C228.303 289.187 228.563 289.173 228.817 289.16C229.083 289.147 229.343 289.133 229.597 289.12V290H225.857ZM229.537 284.82H234.157L232.737 281C232.59 280.587 232.437 280.18 232.277 279.78C232.13 279.367 231.983 278.953 231.837 278.54H231.797C231.663 278.913 231.523 279.287 231.377 279.66C231.243 280.033 231.103 280.413 230.957 280.8L229.537 284.82ZM244.096 276.66C243.603 276.673 243.256 276.787 243.056 277C242.869 277.213 242.763 277.5 242.736 277.86C242.723 278.22 242.716 278.64 242.716 279.12V287.62C242.716 287.98 242.709 288.293 242.696 288.56C242.696 288.813 242.683 289.027 242.656 289.2C242.896 289.187 243.136 289.173 243.376 289.16C243.616 289.147 243.856 289.133 244.096 289.12V290H239.596V289.34C240.103 289.313 240.449 289.2 240.636 289C240.823 288.787 240.923 288.5 240.936 288.14C240.963 287.767 240.976 287.347 240.976 286.88V278.24C240.976 277.973 240.983 277.72 240.996 277.48C241.009 277.227 241.023 277 241.036 276.8C240.796 276.813 240.556 276.827 240.316 276.84C240.076 276.853 239.836 276.867 239.596 276.88V276H244.096V276.66ZM246.295 290V289.34C246.802 289.313 247.149 289.2 247.335 289C247.522 288.787 247.622 288.5 247.635 288.14C247.662 287.767 247.675 287.347 247.675 286.88V278.24C247.675 277.973 247.682 277.72 247.695 277.48C247.709 277.227 247.722 277 247.735 276.8C247.495 276.813 247.255 276.827 247.015 276.84C246.775 276.853 246.535 276.867 246.295 276.88V276C247.042 275.987 247.795 275.973 248.555 275.96C249.329 275.947 250.102 275.953 250.875 275.98C252.169 275.993 253.209 276.147 253.995 276.44C254.795 276.72 255.382 277.127 255.755 277.66C256.129 278.18 256.315 278.813 256.315 279.56C256.329 280.08 256.229 280.613 256.015 281.16C255.815 281.693 255.442 282.173 254.895 282.6C254.362 283.027 253.589 283.347 252.575 283.56C252.842 283.747 253.075 283.987 253.275 284.28C253.475 284.573 253.702 284.913 253.955 285.3L255.315 287.44C255.542 287.8 255.762 288.127 255.975 288.42C256.189 288.7 256.435 288.927 256.715 289.1C256.995 289.26 257.342 289.34 257.755 289.34V290H255.235C254.849 289.653 254.522 289.307 254.255 288.96C254.002 288.613 253.735 288.22 253.455 287.78L252.115 285.64C251.942 285.36 251.742 285.04 251.515 284.68C251.302 284.307 251.055 283.993 250.775 283.74C250.562 283.753 250.335 283.76 250.095 283.76C249.869 283.76 249.642 283.753 249.415 283.74V287.62C249.415 287.98 249.409 288.293 249.395 288.56C249.395 288.813 249.382 289.027 249.355 289.2C249.515 289.187 249.675 289.18 249.835 289.18C249.995 289.167 250.155 289.153 250.315 289.14C250.475 289.127 250.635 289.12 250.795 289.12V290H246.295ZM250.655 283C251.389 282.973 252.029 282.853 252.575 282.64C253.135 282.427 253.575 282.087 253.895 281.62C254.215 281.153 254.375 280.54 254.375 279.78C254.375 279.273 254.302 278.833 254.155 278.46C254.022 278.073 253.809 277.753 253.515 277.5C253.222 277.247 252.849 277.06 252.395 276.94C251.942 276.807 251.409 276.74 250.795 276.74C250.302 276.74 249.955 276.84 249.755 277.04C249.569 277.24 249.462 277.52 249.435 277.88C249.422 278.227 249.415 278.64 249.415 279.12V282.96C249.629 282.973 249.829 282.987 250.015 283C250.215 283.013 250.429 283.013 250.655 283ZM268.428 290.32C267.841 290.32 267.268 290.247 266.708 290.1C266.148 289.967 265.641 289.747 265.188 289.44C264.748 289.12 264.394 288.713 264.128 288.22C263.861 287.713 263.728 287.107 263.728 286.4C263.728 285.533 264.008 284.767 264.568 284.1C265.141 283.433 265.908 282.893 266.868 282.48C266.521 282.027 266.234 281.607 266.008 281.22C265.781 280.82 265.614 280.427 265.508 280.04C265.401 279.64 265.348 279.233 265.348 278.82C265.361 277.86 265.714 277.1 266.408 276.54C267.101 275.967 267.981 275.68 269.048 275.68C269.728 275.68 270.314 275.807 270.808 276.06C271.314 276.3 271.701 276.633 271.968 277.06C272.248 277.473 272.388 277.947 272.388 278.48C272.388 278.973 272.281 279.447 272.068 279.9C271.854 280.353 271.508 280.793 271.028 281.22C270.548 281.633 269.908 282.047 269.108 282.46C269.468 282.833 269.861 283.247 270.288 283.7C270.728 284.153 271.168 284.6 271.608 285.04C272.048 285.467 272.448 285.853 272.808 286.2C272.874 285.96 272.921 285.733 272.948 285.52C272.988 285.293 273.008 285.093 273.008 284.92C273.008 284.613 272.961 284.313 272.868 284.02C272.788 283.713 272.634 283.46 272.408 283.26C272.194 283.047 271.888 282.933 271.488 282.92V282.26H274.988V283.08L273.328 283C273.541 283.173 273.694 283.4 273.788 283.68C273.881 283.96 273.934 284.287 273.948 284.66C273.961 284.913 273.934 285.24 273.868 285.64C273.814 286.027 273.708 286.433 273.548 286.86C273.694 286.993 273.848 287.14 274.008 287.3C274.181 287.447 274.361 287.6 274.548 287.76C275.148 288.293 275.661 288.693 276.088 288.96C276.528 289.213 276.854 289.34 277.068 289.34V290H275.208C275.088 290 274.814 289.88 274.388 289.64C273.974 289.387 273.421 288.953 272.728 288.34C272.301 288.887 271.734 289.353 271.028 289.74C270.334 290.127 269.468 290.32 268.428 290.32ZM268.668 289.32C269.508 289.347 270.201 289.213 270.748 288.92C271.308 288.613 271.754 288.233 272.088 287.78C271.994 287.687 271.901 287.6 271.808 287.52C271.714 287.427 271.614 287.333 271.508 287.24C270.614 286.36 269.821 285.58 269.128 284.9C268.448 284.22 267.868 283.607 267.388 283.06C266.961 283.313 266.628 283.627 266.388 284C266.148 284.373 265.974 284.747 265.868 285.12C265.774 285.493 265.728 285.82 265.728 286.1C265.728 286.833 265.868 287.433 266.148 287.9C266.441 288.367 266.808 288.713 267.248 288.94C267.701 289.167 268.174 289.293 268.668 289.32ZM268.668 281.98C269.414 281.487 269.968 280.94 270.328 280.34C270.688 279.727 270.868 279.127 270.868 278.54C270.868 277.9 270.701 277.373 270.368 276.96C270.034 276.533 269.561 276.32 268.948 276.32C268.401 276.32 267.941 276.527 267.568 276.94C267.208 277.34 267.028 277.913 267.028 278.66C267.028 279.233 267.181 279.8 267.488 280.36C267.808 280.92 268.201 281.46 268.668 281.98ZM51.1 315V314.34C51.6067 314.313 51.9533 314.2 52.14 314C52.3267 313.787 52.4267 313.5 52.44 313.14C52.4667 312.767 52.48 312.347 52.48 311.88V303.24C52.48 302.973 52.4867 302.72 52.5 302.48C52.5133 302.227 52.5267 302 52.54 301.8C52.3 301.813 52.06 301.827 51.82 301.84C51.58 301.853 51.34 301.867 51.1 301.88V301C51.8467 300.987 52.6 300.973 53.36 300.96C54.1333 300.947 54.9067 300.953 55.68 300.98C56.9733 300.993 58.0133 301.147 58.8 301.44C59.6 301.72 60.1867 302.127 60.56 302.66C60.9333 303.18 61.12 303.813 61.12 304.56C61.1333 305.08 61.0333 305.613 60.82 306.16C60.62 306.693 60.2467 307.173 59.7 307.6C59.1667 308.027 58.3933 308.347 57.38 308.56C57.6467 308.747 57.88 308.987 58.08 309.28C58.28 309.573 58.5067 309.913 58.76 310.3L60.12 312.44C60.3467 312.8 60.5667 313.127 60.78 313.42C60.9933 313.7 61.24 313.927 61.52 314.1C61.8 314.26 62.1467 314.34 62.56 314.34V315H60.04C59.6533 314.653 59.3267 314.307 59.06 313.96C58.8067 313.613 58.54 313.22 58.26 312.78L56.92 310.64C56.7467 310.36 56.5467 310.04 56.32 309.68C56.1067 309.307 55.86 308.993 55.58 308.74C55.3667 308.753 55.14 308.76 54.9 308.76C54.6733 308.76 54.4467 308.753 54.22 308.74V312.62C54.22 312.98 54.2133 313.293 54.2 313.56C54.2 313.813 54.1867 314.027 54.16 314.2C54.32 314.187 54.48 314.18 54.64 314.18C54.8 314.167 54.96 314.153 55.12 314.14C55.28 314.127 55.44 314.12 55.6 314.12V315H51.1ZM55.46 308C56.1933 307.973 56.8333 307.853 57.38 307.64C57.94 307.427 58.38 307.087 58.7 306.62C59.02 306.153 59.18 305.54 59.18 304.78C59.18 304.273 59.1067 303.833 58.96 303.46C58.8267 303.073 58.6133 302.753 58.32 302.5C58.0267 302.247 57.6533 302.06 57.2 301.94C56.7467 301.807 56.2133 301.74 55.6 301.74C55.1067 301.74 54.76 301.84 54.56 302.04C54.3733 302.24 54.2667 302.52 54.24 302.88C54.2267 303.227 54.22 303.64 54.22 304.12V307.96C54.4333 307.973 54.6333 307.987 54.82 308C55.02 308.013 55.2333 308.013 55.46 308ZM70.6186 309.82C70.6186 309.233 70.5386 308.813 70.3786 308.56C70.2186 308.307 69.9653 308.153 69.6186 308.1C69.2719 308.047 68.8119 308.033 68.2386 308.06L66.7786 308.12V312.7C66.7786 313.06 66.7719 313.367 66.7586 313.62C66.7586 313.873 66.7453 314.087 66.7186 314.26L70.5386 314.2C71.1253 314.187 71.6319 314.093 72.0586 313.92C72.4853 313.733 72.8186 313.413 73.0586 312.96C73.2986 312.507 73.4186 311.887 73.4186 311.1H74.0986L73.9786 315H63.6586V314.34C64.1653 314.313 64.5119 314.2 64.6986 314C64.8853 313.787 64.9853 313.5 64.9986 313.14C65.0253 312.767 65.0386 312.347 65.0386 311.88V303.24C65.0386 302.973 65.0453 302.72 65.0586 302.48C65.0719 302.227 65.0853 302 65.0986 301.8C64.8586 301.813 64.6186 301.827 64.3786 301.84C64.1386 301.853 63.8986 301.867 63.6586 301.88V301H73.2786L73.3786 304.5H72.7186C72.7186 303.713 72.5986 303.12 72.3586 302.72C72.1186 302.307 71.7919 302.033 71.3786 301.9C70.9786 301.753 70.5253 301.687 70.0186 301.7L68.2986 301.74C67.8053 301.753 67.4519 301.847 67.2386 302.02C67.0253 302.193 66.8919 302.453 66.8386 302.8C66.7986 303.133 66.7786 303.573 66.7786 304.12V307.32L70.5386 307.34L70.3986 305.62H71.2786V309.82H70.6186ZM83.96 305.24C83.92 304.6 83.7667 303.993 83.5 303.42C83.2333 302.847 82.8467 302.38 82.34 302.02C81.8333 301.66 81.1867 301.48 80.4 301.48C79.5733 301.48 78.94 301.713 78.5 302.18C78.06 302.647 77.84 303.193 77.84 303.82C77.84 304.38 78 304.853 78.32 305.24C78.64 305.613 79.0533 305.947 79.56 306.24C80.08 306.52 80.6267 306.793 81.2 307.06C81.7067 307.287 82.2133 307.533 82.72 307.8C83.2267 308.053 83.6867 308.347 84.1 308.68C84.5133 309.013 84.84 309.413 85.08 309.88C85.3333 310.333 85.46 310.88 85.46 311.52C85.46 312.253 85.2733 312.907 84.9 313.48C84.54 314.053 84.0133 314.507 83.32 314.84C82.6267 315.16 81.78 315.32 80.78 315.32C80.18 315.32 79.56 315.233 78.92 315.06C78.28 314.887 77.7133 314.633 77.22 314.3L77.32 315.16H76.28L76.16 310.9H76.94C77.0067 312.073 77.4133 312.967 78.16 313.58C78.9067 314.18 79.8067 314.48 80.86 314.48C81.38 314.48 81.86 314.387 82.3 314.2C82.74 314 83.0867 313.713 83.34 313.34C83.6067 312.967 83.74 312.513 83.74 311.98C83.74 311.38 83.58 310.88 83.26 310.48C82.94 310.08 82.5267 309.733 82.02 309.44C81.5133 309.147 80.9733 308.867 80.4 308.6C79.8933 308.373 79.3933 308.133 78.9 307.88C78.4067 307.627 77.9533 307.34 77.54 307.02C77.14 306.687 76.8133 306.293 76.56 305.84C76.32 305.387 76.2 304.84 76.2 304.2C76.2 303.853 76.26 303.48 76.38 303.08C76.5 302.68 76.7067 302.3 77 301.94C77.3067 301.567 77.72 301.267 78.24 301.04C78.7733 300.8 79.4467 300.68 80.26 300.68C80.7667 300.68 81.3333 300.753 81.96 300.9C82.6 301.033 83.1933 301.3 83.74 301.7L83.66 300.84H84.68V305.24H83.96ZM97.9277 305.22C97.9143 304.433 97.8343 303.78 97.6877 303.26C97.541 302.74 97.281 302.353 96.9077 302.1C96.5477 301.833 96.021 301.707 95.3277 301.72H93.6277L93.6077 312.62C93.6077 312.98 93.601 313.293 93.5877 313.56C93.5877 313.813 93.5743 314.027 93.5477 314.2C93.8277 314.187 94.101 314.173 94.3677 314.16C94.6477 314.147 94.9277 314.133 95.2077 314.12V315H90.5077V314.34C91.0143 314.313 91.3543 314.193 91.5277 313.98C91.7143 313.767 91.8143 313.48 91.8277 313.12C91.8543 312.747 91.8677 312.333 91.8677 311.88L91.8877 301.74L89.8277 301.76C88.9877 301.76 88.3943 302.04 88.0477 302.6C87.701 303.16 87.5277 304.033 87.5277 305.22H86.7877L86.9077 301H98.5677L98.6877 305.22H97.9277ZM107.181 315.32C105.914 315.32 104.827 315.107 103.921 314.68C103.014 314.253 102.274 313.687 101.701 312.98C101.141 312.26 100.727 311.467 100.461 310.6C100.194 309.733 100.061 308.867 100.061 308C100.061 307.16 100.201 306.313 100.481 305.46C100.761 304.593 101.187 303.8 101.761 303.08C102.347 302.36 103.074 301.78 103.941 301.34C104.821 300.9 105.847 300.68 107.021 300.68C108.247 300.68 109.307 300.9 110.201 301.34C111.094 301.78 111.827 302.367 112.401 303.1C112.987 303.82 113.421 304.607 113.701 305.46C113.994 306.313 114.141 307.16 114.141 308C114.141 308.827 114.001 309.673 113.721 310.54C113.441 311.393 113.007 312.187 112.421 312.92C111.847 313.64 111.127 314.22 110.261 314.66C109.394 315.1 108.367 315.32 107.181 315.32ZM107.221 314.5C108.047 314.5 108.767 314.327 109.381 313.98C109.994 313.62 110.501 313.147 110.901 312.56C111.314 311.96 111.621 311.3 111.821 310.58C112.034 309.847 112.141 309.113 112.141 308.38C112.141 307.553 112.027 306.733 111.801 305.92C111.574 305.107 111.241 304.367 110.801 303.7C110.361 303.033 109.814 302.5 109.161 302.1C108.521 301.687 107.787 301.48 106.961 301.48C106.134 301.48 105.407 301.66 104.781 302.02C104.167 302.38 103.654 302.86 103.241 303.46C102.841 304.047 102.534 304.707 102.321 305.44C102.121 306.16 102.021 306.893 102.021 307.64C102.021 308.373 102.121 309.14 102.321 309.94C102.534 310.74 102.854 311.487 103.281 312.18C103.707 312.873 104.247 313.433 104.901 313.86C105.554 314.287 106.327 314.5 107.221 314.5ZM115.944 315V314.34C116.45 314.313 116.797 314.2 116.984 314C117.17 313.787 117.27 313.5 117.284 313.14C117.31 312.767 117.324 312.347 117.324 311.88V303.24C117.324 302.973 117.33 302.72 117.344 302.48C117.357 302.227 117.37 302 117.384 301.8C117.144 301.813 116.904 301.827 116.664 301.84C116.424 301.853 116.184 301.867 115.944 301.88V301C116.69 300.987 117.444 300.973 118.204 300.96C118.977 300.947 119.75 300.953 120.524 300.98C121.817 300.993 122.857 301.147 123.644 301.44C124.444 301.72 125.03 302.127 125.404 302.66C125.777 303.18 125.964 303.813 125.964 304.56C125.977 305.08 125.877 305.613 125.664 306.16C125.464 306.693 125.09 307.173 124.544 307.6C124.01 308.027 123.237 308.347 122.224 308.56C122.49 308.747 122.724 308.987 122.924 309.28C123.124 309.573 123.35 309.913 123.604 310.3L124.964 312.44C125.19 312.8 125.41 313.127 125.624 313.42C125.837 313.7 126.084 313.927 126.364 314.1C126.644 314.26 126.99 314.34 127.404 314.34V315H124.884C124.497 314.653 124.17 314.307 123.904 313.96C123.65 313.613 123.384 313.22 123.104 312.78L121.764 310.64C121.59 310.36 121.39 310.04 121.164 309.68C120.95 309.307 120.704 308.993 120.424 308.74C120.21 308.753 119.984 308.76 119.744 308.76C119.517 308.76 119.29 308.753 119.064 308.74V312.62C119.064 312.98 119.057 313.293 119.044 313.56C119.044 313.813 119.03 314.027 119.004 314.2C119.164 314.187 119.324 314.18 119.484 314.18C119.644 314.167 119.804 314.153 119.964 314.14C120.124 314.127 120.284 314.12 120.444 314.12V315H115.944ZM120.304 308C121.037 307.973 121.677 307.853 122.224 307.64C122.784 307.427 123.224 307.087 123.544 306.62C123.864 306.153 124.024 305.54 124.024 304.78C124.024 304.273 123.95 303.833 123.804 303.46C123.67 303.073 123.457 302.753 123.164 302.5C122.87 302.247 122.497 302.06 122.044 301.94C121.59 301.807 121.057 301.74 120.444 301.74C119.95 301.74 119.604 301.84 119.404 302.04C119.217 302.24 119.11 302.52 119.084 302.88C119.07 303.227 119.064 303.64 119.064 304.12V307.96C119.277 307.973 119.477 307.987 119.664 308C119.864 308.013 120.077 308.013 120.304 308ZM128.259 315V314.34C128.659 314.34 128.966 314.233 129.179 314.02C129.392 313.807 129.566 313.513 129.699 313.14C129.846 312.767 130.012 312.333 130.199 311.84L134.319 300.62H134.799L139.259 312C139.366 312.28 139.486 312.64 139.619 313.08C139.752 313.52 139.806 313.893 139.779 314.2C140.006 314.187 140.232 314.173 140.459 314.16C140.686 314.147 140.912 314.133 141.139 314.12V315H136.559V314.34C137.066 314.327 137.399 314.213 137.559 314C137.719 313.787 137.779 313.533 137.739 313.24C137.699 312.947 137.632 312.68 137.539 312.44L136.839 310.56L131.639 310.68L130.939 312.82C130.846 313.14 130.759 313.393 130.679 313.58C130.612 313.767 130.532 313.973 130.439 314.2C130.706 314.187 130.966 314.173 131.219 314.16C131.486 314.147 131.746 314.133 131.999 314.12V315H128.259ZM131.939 309.82H136.559L135.139 306C134.992 305.587 134.839 305.18 134.679 304.78C134.532 304.367 134.386 303.953 134.239 303.54H134.199C134.066 303.913 133.926 304.287 133.779 304.66C133.646 305.033 133.506 305.413 133.359 305.8L131.939 309.82ZM151.99 305.22C151.977 304.433 151.897 303.78 151.75 303.26C151.603 302.74 151.343 302.353 150.97 302.1C150.61 301.833 150.083 301.707 149.39 301.72H147.69L147.67 312.62C147.67 312.98 147.663 313.293 147.65 313.56C147.65 313.813 147.637 314.027 147.61 314.2C147.89 314.187 148.163 314.173 148.43 314.16C148.71 314.147 148.99 314.133 149.27 314.12V315H144.57V314.34C145.077 314.313 145.417 314.193 145.59 313.98C145.777 313.767 145.877 313.48 145.89 313.12C145.917 312.747 145.93 312.333 145.93 311.88L145.95 301.74L143.89 301.76C143.05 301.76 142.457 302.04 142.11 302.6C141.763 303.16 141.59 304.033 141.59 305.22H140.85L140.97 301H152.63L152.75 305.22H151.99ZM158.803 301.66C158.31 301.673 157.963 301.787 157.763 302C157.576 302.213 157.47 302.5 157.443 302.86C157.43 303.22 157.423 303.64 157.423 304.12V312.62C157.423 312.98 157.416 313.293 157.403 313.56C157.403 313.813 157.39 314.027 157.363 314.2C157.603 314.187 157.843 314.173 158.083 314.16C158.323 314.147 158.563 314.133 158.803 314.12V315H154.303V314.34C154.81 314.313 155.156 314.2 155.343 314C155.53 313.787 155.63 313.5 155.643 313.14C155.67 312.767 155.683 312.347 155.683 311.88V303.24C155.683 302.973 155.69 302.72 155.703 302.48C155.716 302.227 155.73 302 155.743 301.8C155.503 301.813 155.263 301.827 155.023 301.84C154.783 301.853 154.543 301.867 154.303 301.88V301H158.803V301.66ZM167.767 315.32C166.5 315.32 165.413 315.107 164.507 314.68C163.6 314.253 162.86 313.687 162.287 312.98C161.727 312.26 161.313 311.467 161.047 310.6C160.78 309.733 160.647 308.867 160.647 308C160.647 307.16 160.787 306.313 161.067 305.46C161.347 304.593 161.773 303.8 162.347 303.08C162.933 302.36 163.66 301.78 164.527 301.34C165.407 300.9 166.433 300.68 167.607 300.68C168.833 300.68 169.893 300.9 170.787 301.34C171.68 301.78 172.413 302.367 172.987 303.1C173.573 303.82 174.007 304.607 174.287 305.46C174.58 306.313 174.727 307.16 174.727 308C174.727 308.827 174.587 309.673 174.307 310.54C174.027 311.393 173.593 312.187 173.007 312.92C172.433 313.64 171.713 314.22 170.847 314.66C169.98 315.1 168.953 315.32 167.767 315.32ZM167.807 314.5C168.633 314.5 169.353 314.327 169.967 313.98C170.58 313.62 171.087 313.147 171.487 312.56C171.9 311.96 172.207 311.3 172.407 310.58C172.62 309.847 172.727 309.113 172.727 308.38C172.727 307.553 172.613 306.733 172.387 305.92C172.16 305.107 171.827 304.367 171.387 303.7C170.947 303.033 170.4 302.5 169.747 302.1C169.107 301.687 168.373 301.48 167.547 301.48C166.72 301.48 165.993 301.66 165.367 302.02C164.753 302.38 164.24 302.86 163.827 303.46C163.427 304.047 163.12 304.707 162.907 305.44C162.707 306.16 162.607 306.893 162.607 307.64C162.607 308.373 162.707 309.14 162.907 309.94C163.12 310.74 163.44 311.487 163.867 312.18C164.293 312.873 164.833 313.433 165.487 313.86C166.14 314.287 166.913 314.5 167.807 314.5ZM187.47 315.32L179.49 304.6C179.37 304.44 179.25 304.287 179.13 304.14C179.023 303.98 178.91 303.82 178.79 303.66H178.77L178.83 312.22C178.83 312.553 178.83 312.887 178.83 313.22C178.83 313.553 178.816 313.88 178.79 314.2C179.03 314.187 179.27 314.173 179.51 314.16C179.75 314.147 179.99 314.133 180.23 314.12V315H176.57V314.34C176.983 314.34 177.276 314.253 177.45 314.08C177.636 313.893 177.756 313.68 177.81 313.44C177.863 313.187 177.89 312.96 177.89 312.76L177.91 303.14C177.91 302.913 177.91 302.687 177.91 302.46C177.91 302.233 177.91 302.013 177.91 301.8C177.696 301.813 177.476 301.827 177.25 301.84C177.023 301.853 176.796 301.867 176.57 301.88V301H178.95L186.45 311.04C186.623 311.267 186.79 311.493 186.95 311.72C187.123 311.947 187.296 312.173 187.47 312.4H187.49L187.51 303.24C187.51 302.973 187.516 302.72 187.53 302.48C187.543 302.227 187.556 302 187.57 301.8C187.33 301.813 187.09 301.827 186.85 301.84C186.61 301.853 186.37 301.867 186.13 301.88V301H189.81V301.66C189.316 301.673 188.976 301.787 188.79 302C188.603 302.213 188.503 302.5 188.49 302.86C188.476 303.22 188.47 303.64 188.47 304.12L188.43 315.32H187.47Z" fill="white"/>
</svg>
