<svg width="360" height="360" viewBox="0 0 360 360" fill="none" xmlns="http://www.w3.org/2000/svg">
<rect width="360" height="360" fill="#29231E"/>
<path d="M58.3333 45.5H45.5V58.3333H58.3333V45.5Z" stroke="#FFD59B" stroke-width="2" stroke-linecap="round" stroke-linejoin="round"/>
<path d="M78.5 45.5H65.6667V58.3333H78.5V45.5Z" stroke="#FFD59B" stroke-width="2" stroke-linecap="round" stroke-linejoin="round"/>
<path d="M78.5 65.6665H65.6667V78.4998H78.5V65.6665Z" stroke="#FFD59B" stroke-width="2" stroke-linecap="round" stroke-linejoin="round"/>
<path d="M58.3333 65.6665H45.5V78.4998H58.3333V65.6665Z" stroke="#FFD59B" stroke-width="2" stroke-linecap="round" stroke-linejoin="round"/>
<path d="M306.513 60.32C305.5 60.32 304.66 60.1067 303.993 59.68C303.326 59.24 302.806 58.6667 302.433 57.96C302.06 57.24 301.793 56.4533 301.633 55.6C301.486 54.7467 301.413 53.9 301.413 53.06C301.413 52.22 301.506 51.3667 301.693 50.5C301.893 49.6333 302.2 48.84 302.613 48.12C303.026 47.3867 303.56 46.8 304.213 46.36C304.866 45.9067 305.66 45.68 306.593 45.68C307.566 45.68 308.373 45.9 309.013 46.34C309.666 46.78 310.18 47.36 310.553 48.08C310.94 48.7867 311.213 49.5667 311.373 50.42C311.533 51.2733 311.613 52.12 311.613 52.96C311.613 53.7867 311.52 54.6333 311.333 55.5C311.146 56.3667 310.853 57.1667 310.453 57.9C310.053 58.62 309.526 59.2067 308.873 59.66C308.233 60.1 307.446 60.32 306.513 60.32ZM306.633 59.54C307.206 59.54 307.68 59.36 308.053 59C308.426 58.64 308.72 58.16 308.933 57.56C309.16 56.96 309.32 56.3 309.413 55.58C309.506 54.8467 309.553 54.1133 309.553 53.38C309.553 52.5667 309.506 51.7533 309.413 50.94C309.32 50.1267 309.16 49.38 308.933 48.7C308.706 48.02 308.4 47.4733 308.013 47.06C307.626 46.6467 307.14 46.44 306.553 46.44C305.98 46.44 305.493 46.62 305.093 46.98C304.706 47.34 304.393 47.82 304.153 48.42C303.913 49.02 303.74 49.6867 303.633 50.42C303.526 51.1533 303.473 51.8933 303.473 52.64C303.473 53.2 303.5 53.7933 303.553 54.42C303.606 55.0467 303.7 55.6667 303.833 56.28C303.98 56.88 304.173 57.4267 304.413 57.92C304.653 58.4133 304.953 58.8067 305.313 59.1C305.673 59.3933 306.113 59.54 306.633 59.54ZM314.195 60V59.34C314.662 59.3133 315.015 59.2067 315.255 59.02C315.508 58.8333 315.682 58.5733 315.775 58.24C315.882 57.9067 315.935 57.5133 315.935 57.06L315.875 47.62L313.475 49.16L313.075 48.58L316.975 45.68H317.655L317.675 57.82C317.675 58.0733 317.668 58.32 317.655 58.56C317.655 58.8 317.642 59.0133 317.615 59.2C317.895 59.1867 318.175 59.1733 318.455 59.16C318.735 59.1467 319.015 59.1333 319.295 59.12V60H314.195Z" fill="white" fill-opacity="0.6"/>
<line x1="40" y1="249.5" x2="320" y2="249.5" stroke="white" stroke-opacity="0.1"/>
<path d="M62.16 280.46C62.0267 279.207 61.5867 278.233 60.84 277.54C60.1067 276.847 59.16 276.5 58 276.5C57.2933 276.5 56.6267 276.653 56 276.96C55.3867 277.253 54.8467 277.68 54.38 278.24C53.9133 278.8 53.5467 279.473 53.28 280.26C53.0133 281.047 52.88 281.933 52.88 282.92C52.88 284.173 53.12 285.28 53.6 286.24C54.08 287.2 54.7267 287.947 55.54 288.48C56.3533 289.013 57.2533 289.28 58.24 289.28C59.1067 289.28 59.96 289.087 60.8 288.7C61.64 288.3 62.3267 287.727 62.86 286.98L63.38 287.4C62.8067 288.187 62.1867 288.793 61.52 289.22C60.8533 289.647 60.1867 289.933 59.52 290.08C58.8667 290.24 58.2667 290.32 57.72 290.32C56.72 290.32 55.8 290.14 54.96 289.78C54.1333 289.42 53.4133 288.92 52.8 288.28C52.2 287.627 51.7333 286.873 51.4 286.02C51.08 285.153 50.92 284.22 50.92 283.22C50.92 282.273 51.06 281.353 51.34 280.46C51.6333 279.567 52.0667 278.76 52.64 278.04C53.2133 277.32 53.9333 276.747 54.8 276.32C55.68 275.893 56.7 275.68 57.86 275.68C58.6067 275.68 59.3133 275.78 59.98 275.98C60.6467 276.18 61.2867 276.487 61.9 276.9L61.8 275.82H62.88V280.46H62.16ZM69.0844 276.66C68.6444 276.66 68.3244 276.753 68.1244 276.94C67.9377 277.127 67.8244 277.347 67.7844 277.6C67.7444 277.84 67.7244 278.053 67.7244 278.24V283.28C67.7244 284.027 67.771 284.753 67.8644 285.46C67.971 286.153 68.1644 286.78 68.4444 287.34C68.7244 287.9 69.1377 288.347 69.6844 288.68C70.2444 289.013 70.971 289.18 71.8644 289.18C72.8244 289.18 73.6044 288.953 74.2044 288.5C74.8177 288.047 75.2644 287.42 75.5444 286.62C75.8377 285.82 75.991 284.9 76.0044 283.86L76.0644 278.24C76.0644 277.973 76.071 277.72 76.0844 277.48C76.0977 277.227 76.111 277 76.1244 276.8C75.8844 276.813 75.6444 276.827 75.4044 276.84C75.1777 276.853 74.9444 276.867 74.7044 276.88V276H78.4244V276.66C77.9177 276.673 77.571 276.787 77.3844 277C77.1977 277.213 77.091 277.5 77.0644 277.86C77.051 278.22 77.0377 278.64 77.0244 279.12L76.9844 283.76C76.9844 284.627 76.891 285.453 76.7044 286.24C76.5177 287.027 76.211 287.727 75.7844 288.34C75.371 288.953 74.8177 289.44 74.1244 289.8C73.4444 290.147 72.6044 290.32 71.6044 290.32C70.5377 290.32 69.6377 290.18 68.9044 289.9C68.1844 289.62 67.6044 289.187 67.1644 288.6C66.7377 288.013 66.431 287.273 66.2444 286.38C66.0577 285.487 65.9644 284.42 65.9644 283.18V279.12C65.9644 278.773 65.971 278.367 65.9844 277.9C66.011 277.42 66.031 277.053 66.0444 276.8C65.8044 276.813 65.5644 276.827 65.3244 276.84C65.0844 276.84 64.8444 276.847 64.6044 276.86V276H69.0844V276.66ZM87.9834 280.24C87.9434 279.6 87.7901 278.993 87.5234 278.42C87.2568 277.847 86.8701 277.38 86.3634 277.02C85.8568 276.66 85.2101 276.48 84.4234 276.48C83.5968 276.48 82.9634 276.713 82.5234 277.18C82.0834 277.647 81.8634 278.193 81.8634 278.82C81.8634 279.38 82.0234 279.853 82.3434 280.24C82.6634 280.613 83.0768 280.947 83.5834 281.24C84.1034 281.52 84.6501 281.793 85.2234 282.06C85.7301 282.287 86.2368 282.533 86.7434 282.8C87.2501 283.053 87.7101 283.347 88.1234 283.68C88.5368 284.013 88.8634 284.413 89.1034 284.88C89.3568 285.333 89.4834 285.88 89.4834 286.52C89.4834 287.253 89.2968 287.907 88.9234 288.48C88.5634 289.053 88.0368 289.507 87.3434 289.84C86.6501 290.16 85.8034 290.32 84.8034 290.32C84.2034 290.32 83.5834 290.233 82.9434 290.06C82.3034 289.887 81.7368 289.633 81.2434 289.3L81.3434 290.16H80.3034L80.1834 285.9H80.9634C81.0301 287.073 81.4368 287.967 82.1834 288.58C82.9301 289.18 83.8301 289.48 84.8834 289.48C85.4034 289.48 85.8834 289.387 86.3234 289.2C86.7634 289 87.1101 288.713 87.3634 288.34C87.6301 287.967 87.7634 287.513 87.7634 286.98C87.7634 286.38 87.6034 285.88 87.2834 285.48C86.9634 285.08 86.5501 284.733 86.0434 284.44C85.5368 284.147 84.9968 283.867 84.4234 283.6C83.9168 283.373 83.4168 283.133 82.9234 282.88C82.4301 282.627 81.9768 282.34 81.5634 282.02C81.1634 281.687 80.8368 281.293 80.5834 280.84C80.3434 280.387 80.2234 279.84 80.2234 279.2C80.2234 278.853 80.2834 278.48 80.4034 278.08C80.5234 277.68 80.7301 277.3 81.0234 276.94C81.3301 276.567 81.7434 276.267 82.2634 276.04C82.7968 275.8 83.4701 275.68 84.2834 275.68C84.7901 275.68 85.3568 275.753 85.9834 275.9C86.6234 276.033 87.2168 276.3 87.7634 276.7L87.6834 275.84H88.7034V280.24H87.9834ZM101.951 280.22C101.938 279.433 101.858 278.78 101.711 278.26C101.564 277.74 101.304 277.353 100.931 277.1C100.571 276.833 100.044 276.707 99.3511 276.72H97.6511L97.6311 287.62C97.6311 287.98 97.6244 288.293 97.6111 288.56C97.6111 288.813 97.5978 289.027 97.5711 289.2C97.8511 289.187 98.1244 289.173 98.3911 289.16C98.6711 289.147 98.9511 289.133 99.2311 289.12V290H94.5311V289.34C95.0378 289.313 95.3778 289.193 95.5511 288.98C95.7378 288.767 95.8378 288.48 95.8511 288.12C95.8778 287.747 95.8911 287.333 95.8911 286.88L95.9111 276.74L93.8511 276.76C93.0111 276.76 92.4178 277.04 92.0711 277.6C91.7244 278.16 91.5511 279.033 91.5511 280.22H90.8111L90.9311 276H102.591L102.711 280.22H101.951ZM111.204 290.32C109.937 290.32 108.851 290.107 107.944 289.68C107.037 289.253 106.297 288.687 105.724 287.98C105.164 287.26 104.751 286.467 104.484 285.6C104.217 284.733 104.084 283.867 104.084 283C104.084 282.16 104.224 281.313 104.504 280.46C104.784 279.593 105.211 278.8 105.784 278.08C106.371 277.36 107.097 276.78 107.964 276.34C108.844 275.9 109.871 275.68 111.044 275.68C112.271 275.68 113.331 275.9 114.224 276.34C115.117 276.78 115.851 277.367 116.424 278.1C117.011 278.82 117.444 279.607 117.724 280.46C118.017 281.313 118.164 282.16 118.164 283C118.164 283.827 118.024 284.673 117.744 285.54C117.464 286.393 117.031 287.187 116.444 287.92C115.871 288.64 115.151 289.22 114.284 289.66C113.417 290.1 112.391 290.32 111.204 290.32ZM111.244 289.5C112.071 289.5 112.791 289.327 113.404 288.98C114.017 288.62 114.524 288.147 114.924 287.56C115.337 286.96 115.644 286.3 115.844 285.58C116.057 284.847 116.164 284.113 116.164 283.38C116.164 282.553 116.051 281.733 115.824 280.92C115.597 280.107 115.264 279.367 114.824 278.7C114.384 278.033 113.837 277.5 113.184 277.1C112.544 276.687 111.811 276.48 110.984 276.48C110.157 276.48 109.431 276.66 108.804 277.02C108.191 277.38 107.677 277.86 107.264 278.46C106.864 279.047 106.557 279.707 106.344 280.44C106.144 281.16 106.044 281.893 106.044 282.64C106.044 283.373 106.144 284.14 106.344 284.94C106.557 285.74 106.877 286.487 107.304 287.18C107.731 287.873 108.271 288.433 108.924 288.86C109.577 289.287 110.351 289.5 111.244 289.5ZM127.585 290.2C126.999 288.867 126.405 287.54 125.805 286.22C125.205 284.887 124.619 283.54 124.045 282.18C123.859 281.753 123.672 281.327 123.485 280.9C123.312 280.46 123.139 280.02 122.965 279.58C122.805 279.14 122.639 278.7 122.465 278.26C122.465 278.407 122.459 278.553 122.445 278.7C122.445 278.847 122.445 278.993 122.445 279.14C122.432 279.62 122.412 280.2 122.385 280.88C122.372 281.547 122.352 282.267 122.325 283.04C122.299 283.8 122.279 284.567 122.265 285.34C122.252 286.1 122.239 286.82 122.225 287.5C122.212 287.793 122.199 288.087 122.185 288.38C122.185 288.673 122.172 288.947 122.145 289.2C122.399 289.187 122.645 289.173 122.885 289.16C123.139 289.147 123.392 289.133 123.645 289.12V290H119.825V289.34C120.239 289.327 120.539 289.24 120.725 289.08C120.925 288.907 121.052 288.68 121.105 288.4C121.159 288.12 121.192 287.82 121.205 287.5L121.585 278.38C121.599 278.113 121.605 277.847 121.605 277.58C121.619 277.313 121.632 277.053 121.645 276.8C121.405 276.813 121.165 276.827 120.925 276.84C120.685 276.84 120.445 276.847 120.205 276.86V276H123.265L126.705 283.94C126.879 284.34 127.045 284.74 127.205 285.14C127.379 285.54 127.552 285.94 127.725 286.34C127.912 286.74 128.092 287.147 128.265 287.56H128.305C128.452 287.2 128.625 286.773 128.825 286.28C129.025 285.773 129.192 285.34 129.325 284.98C129.912 283.513 130.519 282.047 131.145 280.58C131.785 279.1 132.412 277.573 133.025 276H135.985V276.66C135.652 276.647 135.379 276.713 135.165 276.86C134.952 276.993 134.799 277.22 134.705 277.54C134.612 277.86 134.579 278.293 134.605 278.84L135.125 287.94C135.152 288.167 135.165 288.387 135.165 288.6C135.165 288.813 135.165 289.007 135.165 289.18C135.405 289.167 135.645 289.16 135.885 289.16C136.139 289.147 136.385 289.133 136.625 289.12V290H132.145V289.34C132.559 289.327 132.865 289.227 133.065 289.04C133.265 288.853 133.385 288.587 133.425 288.24C133.479 287.893 133.492 287.467 133.465 286.96L133.065 280.36C133.052 280.147 133.039 279.933 133.025 279.72C133.012 279.507 132.999 279.293 132.985 279.08C132.972 278.867 132.959 278.653 132.945 278.44C132.905 278.533 132.859 278.633 132.805 278.74C132.765 278.847 132.725 278.96 132.685 279.08L128.185 290.2H127.585ZM142.439 290V289.34C142.839 289.34 143.145 289.233 143.359 289.02C143.572 288.807 143.745 288.513 143.879 288.14C144.025 287.767 144.192 287.333 144.379 286.84L148.499 275.62H148.979L153.439 287C153.545 287.28 153.665 287.64 153.799 288.08C153.932 288.52 153.985 288.893 153.959 289.2C154.185 289.187 154.412 289.173 154.639 289.16C154.865 289.147 155.092 289.133 155.319 289.12V290H150.739V289.34C151.245 289.327 151.579 289.213 151.739 289C151.899 288.787 151.959 288.533 151.919 288.24C151.879 287.947 151.812 287.68 151.719 287.44L151.019 285.56L145.819 285.68L145.119 287.82C145.025 288.14 144.939 288.393 144.859 288.58C144.792 288.767 144.712 288.973 144.619 289.2C144.885 289.187 145.145 289.173 145.399 289.16C145.665 289.147 145.925 289.133 146.179 289.12V290H142.439ZM146.119 284.82H150.739L149.319 281C149.172 280.587 149.019 280.18 148.859 279.78C148.712 279.367 148.565 278.953 148.419 278.54H148.379C148.245 278.913 148.105 279.287 147.959 279.66C147.825 280.033 147.685 280.413 147.539 280.8L146.119 284.82ZM167.14 280.46C167.007 279.207 166.567 278.233 165.82 277.54C165.087 276.847 164.14 276.5 162.98 276.5C162.274 276.5 161.607 276.653 160.98 276.96C160.367 277.253 159.827 277.68 159.36 278.24C158.894 278.8 158.527 279.473 158.26 280.26C157.994 281.047 157.86 281.933 157.86 282.92C157.86 284.173 158.1 285.28 158.58 286.24C159.06 287.2 159.707 287.947 160.52 288.48C161.334 289.013 162.234 289.28 163.22 289.28C164.087 289.28 164.94 289.087 165.78 288.7C166.62 288.3 167.307 287.727 167.84 286.98L168.36 287.4C167.787 288.187 167.167 288.793 166.5 289.22C165.834 289.647 165.167 289.933 164.5 290.08C163.847 290.24 163.247 290.32 162.7 290.32C161.7 290.32 160.78 290.14 159.94 289.78C159.114 289.42 158.394 288.92 157.78 288.28C157.18 287.627 156.714 286.873 156.38 286.02C156.06 285.153 155.9 284.22 155.9 283.22C155.9 282.273 156.04 281.353 156.32 280.46C156.614 279.567 157.047 278.76 157.62 278.04C158.194 277.32 158.914 276.747 159.78 276.32C160.66 275.893 161.68 275.68 162.84 275.68C163.587 275.68 164.294 275.78 164.96 275.98C165.627 276.18 166.267 276.487 166.88 276.9L166.78 275.82H167.86V280.46H167.14ZM181.125 280.46C180.992 279.207 180.552 278.233 179.805 277.54C179.072 276.847 178.125 276.5 176.965 276.5C176.258 276.5 175.592 276.653 174.965 276.96C174.352 277.253 173.812 277.68 173.345 278.24C172.878 278.8 172.512 279.473 172.245 280.26C171.978 281.047 171.845 281.933 171.845 282.92C171.845 284.173 172.085 285.28 172.565 286.24C173.045 287.2 173.692 287.947 174.505 288.48C175.318 289.013 176.218 289.28 177.205 289.28C178.072 289.28 178.925 289.087 179.765 288.7C180.605 288.3 181.292 287.727 181.825 286.98L182.345 287.4C181.772 288.187 181.152 288.793 180.485 289.22C179.818 289.647 179.152 289.933 178.485 290.08C177.832 290.24 177.232 290.32 176.685 290.32C175.685 290.32 174.765 290.14 173.925 289.78C173.098 289.42 172.378 288.92 171.765 288.28C171.165 287.627 170.698 286.873 170.365 286.02C170.045 285.153 169.885 284.22 169.885 283.22C169.885 282.273 170.025 281.353 170.305 280.46C170.598 279.567 171.032 278.76 171.605 278.04C172.178 277.32 172.898 276.747 173.765 276.32C174.645 275.893 175.665 275.68 176.825 275.68C177.572 275.68 178.278 275.78 178.945 275.98C179.612 276.18 180.252 276.487 180.865 276.9L180.765 275.82H181.845V280.46H181.125ZM191.009 284.82C191.009 284.233 190.929 283.813 190.769 283.56C190.609 283.307 190.356 283.153 190.009 283.1C189.663 283.047 189.203 283.033 188.629 283.06L187.169 283.12V287.7C187.169 288.06 187.163 288.367 187.149 288.62C187.149 288.873 187.136 289.087 187.109 289.26L190.929 289.2C191.516 289.187 192.023 289.093 192.449 288.92C192.876 288.733 193.209 288.413 193.449 287.96C193.689 287.507 193.809 286.887 193.809 286.1H194.489L194.369 290H184.049V289.34C184.556 289.313 184.903 289.2 185.089 289C185.276 288.787 185.376 288.5 185.389 288.14C185.416 287.767 185.429 287.347 185.429 286.88V278.24C185.429 277.973 185.436 277.72 185.449 277.48C185.463 277.227 185.476 277 185.489 276.8C185.249 276.813 185.009 276.827 184.769 276.84C184.529 276.853 184.289 276.867 184.049 276.88V276H193.669L193.769 279.5H193.109C193.109 278.713 192.989 278.12 192.749 277.72C192.509 277.307 192.183 277.033 191.769 276.9C191.369 276.753 190.916 276.687 190.409 276.7L188.689 276.74C188.196 276.753 187.843 276.847 187.629 277.02C187.416 277.193 187.283 277.453 187.229 277.8C187.189 278.133 187.169 278.573 187.169 279.12V282.32L190.929 282.34L190.789 280.62H191.669V284.82H191.009ZM204.351 280.24C204.311 279.6 204.157 278.993 203.891 278.42C203.624 277.847 203.237 277.38 202.731 277.02C202.224 276.66 201.577 276.48 200.791 276.48C199.964 276.48 199.331 276.713 198.891 277.18C198.451 277.647 198.231 278.193 198.231 278.82C198.231 279.38 198.391 279.853 198.711 280.24C199.031 280.613 199.444 280.947 199.951 281.24C200.471 281.52 201.017 281.793 201.591 282.06C202.097 282.287 202.604 282.533 203.111 282.8C203.617 283.053 204.077 283.347 204.491 283.68C204.904 284.013 205.231 284.413 205.471 284.88C205.724 285.333 205.851 285.88 205.851 286.52C205.851 287.253 205.664 287.907 205.291 288.48C204.931 289.053 204.404 289.507 203.711 289.84C203.017 290.16 202.171 290.32 201.171 290.32C200.571 290.32 199.951 290.233 199.311 290.06C198.671 289.887 198.104 289.633 197.611 289.3L197.711 290.16H196.671L196.551 285.9H197.331C197.397 287.073 197.804 287.967 198.551 288.58C199.297 289.18 200.197 289.48 201.251 289.48C201.771 289.48 202.251 289.387 202.691 289.2C203.131 289 203.477 288.713 203.731 288.34C203.997 287.967 204.131 287.513 204.131 286.98C204.131 286.38 203.971 285.88 203.651 285.48C203.331 285.08 202.917 284.733 202.411 284.44C201.904 284.147 201.364 283.867 200.791 283.6C200.284 283.373 199.784 283.133 199.291 282.88C198.797 282.627 198.344 282.34 197.931 282.02C197.531 281.687 197.204 281.293 196.951 280.84C196.711 280.387 196.591 279.84 196.591 279.2C196.591 278.853 196.651 278.48 196.771 278.08C196.891 277.68 197.097 277.3 197.391 276.94C197.697 276.567 198.111 276.267 198.631 276.04C199.164 275.8 199.837 275.68 200.651 275.68C201.157 275.68 201.724 275.753 202.351 275.9C202.991 276.033 203.584 276.3 204.131 276.7L204.051 275.84H205.071V280.24H204.351ZM215.698 280.24C215.658 279.6 215.505 278.993 215.238 278.42C214.972 277.847 214.585 277.38 214.078 277.02C213.572 276.66 212.925 276.48 212.138 276.48C211.312 276.48 210.678 276.713 210.238 277.18C209.798 277.647 209.578 278.193 209.578 278.82C209.578 279.38 209.738 279.853 210.058 280.24C210.378 280.613 210.792 280.947 211.298 281.24C211.818 281.52 212.365 281.793 212.938 282.06C213.445 282.287 213.952 282.533 214.458 282.8C214.965 283.053 215.425 283.347 215.838 283.68C216.252 284.013 216.578 284.413 216.818 284.88C217.072 285.333 217.198 285.88 217.198 286.52C217.198 287.253 217.012 287.907 216.638 288.48C216.278 289.053 215.752 289.507 215.058 289.84C214.365 290.16 213.518 290.32 212.518 290.32C211.918 290.32 211.298 290.233 210.658 290.06C210.018 289.887 209.452 289.633 208.958 289.3L209.058 290.16H208.018L207.898 285.9H208.678C208.745 287.073 209.152 287.967 209.898 288.58C210.645 289.18 211.545 289.48 212.598 289.48C213.118 289.48 213.598 289.387 214.038 289.2C214.478 289 214.825 288.713 215.078 288.34C215.345 287.967 215.478 287.513 215.478 286.98C215.478 286.38 215.318 285.88 214.998 285.48C214.678 285.08 214.265 284.733 213.758 284.44C213.252 284.147 212.712 283.867 212.138 283.6C211.632 283.373 211.132 283.133 210.638 282.88C210.145 282.627 209.692 282.34 209.278 282.02C208.878 281.687 208.552 281.293 208.298 280.84C208.058 280.387 207.938 279.84 207.938 279.2C207.938 278.853 207.998 278.48 208.118 278.08C208.238 277.68 208.445 277.3 208.738 276.94C209.045 276.567 209.458 276.267 209.978 276.04C210.512 275.8 211.185 275.68 211.998 275.68C212.505 275.68 213.072 275.753 213.698 275.9C214.338 276.033 214.932 276.3 215.478 276.7L215.398 275.84H216.418V280.24H215.698ZM226.126 290.32C224.859 290.32 223.773 290.107 222.866 289.68C221.959 289.253 221.219 288.687 220.646 287.98C220.086 287.26 219.673 286.467 219.406 285.6C219.139 284.733 219.006 283.867 219.006 283C219.006 282.16 219.146 281.313 219.426 280.46C219.706 279.593 220.133 278.8 220.706 278.08C221.293 277.36 222.019 276.78 222.886 276.34C223.766 275.9 224.793 275.68 225.966 275.68C227.193 275.68 228.253 275.9 229.146 276.34C230.039 276.78 230.773 277.367 231.346 278.1C231.933 278.82 232.366 279.607 232.646 280.46C232.939 281.313 233.086 282.16 233.086 283C233.086 283.827 232.946 284.673 232.666 285.54C232.386 286.393 231.953 287.187 231.366 287.92C230.793 288.64 230.073 289.22 229.206 289.66C228.339 290.1 227.313 290.32 226.126 290.32ZM226.166 289.5C226.993 289.5 227.713 289.327 228.326 288.98C228.939 288.62 229.446 288.147 229.846 287.56C230.259 286.96 230.566 286.3 230.766 285.58C230.979 284.847 231.086 284.113 231.086 283.38C231.086 282.553 230.973 281.733 230.746 280.92C230.519 280.107 230.186 279.367 229.746 278.7C229.306 278.033 228.759 277.5 228.106 277.1C227.466 276.687 226.733 276.48 225.906 276.48C225.079 276.48 224.353 276.66 223.726 277.02C223.113 277.38 222.599 277.86 222.186 278.46C221.786 279.047 221.479 279.707 221.266 280.44C221.066 281.16 220.966 281.893 220.966 282.64C220.966 283.373 221.066 284.14 221.266 284.94C221.479 285.74 221.799 286.487 222.226 287.18C222.653 287.873 223.193 288.433 223.846 288.86C224.499 289.287 225.273 289.5 226.166 289.5ZM234.889 290V289.34C235.396 289.313 235.742 289.2 235.929 289C236.116 288.787 236.216 288.5 236.229 288.14C236.256 287.767 236.269 287.347 236.269 286.88V278.24C236.269 277.973 236.276 277.72 236.289 277.48C236.302 277.227 236.316 277 236.329 276.8C236.089 276.813 235.849 276.827 235.609 276.84C235.369 276.853 235.129 276.867 234.889 276.88V276C235.636 275.987 236.389 275.973 237.149 275.96C237.922 275.947 238.696 275.953 239.469 275.98C240.762 275.993 241.802 276.147 242.589 276.44C243.389 276.72 243.976 277.127 244.349 277.66C244.722 278.18 244.909 278.813 244.909 279.56C244.922 280.08 244.822 280.613 244.609 281.16C244.409 281.693 244.036 282.173 243.489 282.6C242.956 283.027 242.182 283.347 241.169 283.56C241.436 283.747 241.669 283.987 241.869 284.28C242.069 284.573 242.296 284.913 242.549 285.3L243.909 287.44C244.136 287.8 244.356 288.127 244.569 288.42C244.782 288.7 245.029 288.927 245.309 289.1C245.589 289.26 245.936 289.34 246.349 289.34V290H243.829C243.442 289.653 243.116 289.307 242.849 288.96C242.596 288.613 242.329 288.22 242.049 287.78L240.709 285.64C240.536 285.36 240.336 285.04 240.109 284.68C239.896 284.307 239.649 283.993 239.369 283.74C239.156 283.753 238.929 283.76 238.689 283.76C238.462 283.76 238.236 283.753 238.009 283.74V287.62C238.009 287.98 238.002 288.293 237.989 288.56C237.989 288.813 237.976 289.027 237.949 289.2C238.109 289.187 238.269 289.18 238.429 289.18C238.589 289.167 238.749 289.153 238.909 289.14C239.069 289.127 239.229 289.12 239.389 289.12V290H234.889ZM239.249 283C239.982 282.973 240.622 282.853 241.169 282.64C241.729 282.427 242.169 282.087 242.489 281.62C242.809 281.153 242.969 280.54 242.969 279.78C242.969 279.273 242.896 278.833 242.749 278.46C242.616 278.073 242.402 277.753 242.109 277.5C241.816 277.247 241.442 277.06 240.989 276.94C240.536 276.807 240.002 276.74 239.389 276.74C238.896 276.74 238.549 276.84 238.349 277.04C238.162 277.24 238.056 277.52 238.029 277.88C238.016 278.227 238.009 278.64 238.009 279.12V282.96C238.222 282.973 238.422 282.987 238.609 283C238.809 283.013 239.022 283.013 239.249 283ZM251.948 276.66C251.454 276.673 251.108 276.787 250.908 277C250.721 277.213 250.614 277.5 250.588 277.86C250.574 278.22 250.568 278.64 250.568 279.12V287.62C250.568 287.98 250.561 288.293 250.548 288.56C250.548 288.813 250.534 289.027 250.508 289.2C250.748 289.187 250.988 289.173 251.228 289.16C251.468 289.147 251.708 289.133 251.948 289.12V290H247.448V289.34C247.954 289.313 248.301 289.2 248.488 289C248.674 288.787 248.774 288.5 248.788 288.14C248.814 287.767 248.828 287.347 248.828 286.88V278.24C248.828 277.973 248.834 277.72 248.848 277.48C248.861 277.227 248.874 277 248.888 276.8C248.648 276.813 248.408 276.827 248.168 276.84C247.928 276.853 247.688 276.867 247.448 276.88V276H251.948V276.66ZM261.107 284.82C261.107 284.233 261.027 283.813 260.867 283.56C260.707 283.307 260.454 283.153 260.107 283.1C259.76 283.047 259.3 283.033 258.727 283.06L257.267 283.12V287.7C257.267 288.06 257.26 288.367 257.247 288.62C257.247 288.873 257.234 289.087 257.207 289.26L261.027 289.2C261.614 289.187 262.12 289.093 262.547 288.92C262.974 288.733 263.307 288.413 263.547 287.96C263.787 287.507 263.907 286.887 263.907 286.1H264.587L264.467 290H254.147V289.34C254.654 289.313 255 289.2 255.187 289C255.374 288.787 255.474 288.5 255.487 288.14C255.514 287.767 255.527 287.347 255.527 286.88V278.24C255.527 277.973 255.534 277.72 255.547 277.48C255.56 277.227 255.574 277 255.587 276.8C255.347 276.813 255.107 276.827 254.867 276.84C254.627 276.853 254.387 276.867 254.147 276.88V276H263.767L263.867 279.5H263.207C263.207 278.713 263.087 278.12 262.847 277.72C262.607 277.307 262.28 277.033 261.867 276.9C261.467 276.753 261.014 276.687 260.507 276.7L258.787 276.74C258.294 276.753 257.94 276.847 257.727 277.02C257.514 277.193 257.38 277.453 257.327 277.8C257.287 278.133 257.267 278.573 257.267 279.12V282.32L261.027 282.34L260.887 280.62H261.767V284.82H261.107ZM274.448 280.24C274.408 279.6 274.255 278.993 273.988 278.42C273.722 277.847 273.335 277.38 272.828 277.02C272.322 276.66 271.675 276.48 270.888 276.48C270.062 276.48 269.428 276.713 268.988 277.18C268.548 277.647 268.328 278.193 268.328 278.82C268.328 279.38 268.488 279.853 268.808 280.24C269.128 280.613 269.542 280.947 270.048 281.24C270.568 281.52 271.115 281.793 271.688 282.06C272.195 282.287 272.702 282.533 273.208 282.8C273.715 283.053 274.175 283.347 274.588 283.68C275.002 284.013 275.328 284.413 275.568 284.88C275.822 285.333 275.948 285.88 275.948 286.52C275.948 287.253 275.762 287.907 275.388 288.48C275.028 289.053 274.502 289.507 273.808 289.84C273.115 290.16 272.268 290.32 271.268 290.32C270.668 290.32 270.048 290.233 269.408 290.06C268.768 289.887 268.202 289.633 267.708 289.3L267.808 290.16H266.768L266.648 285.9H267.428C267.495 287.073 267.902 287.967 268.648 288.58C269.395 289.18 270.295 289.48 271.348 289.48C271.868 289.48 272.348 289.387 272.788 289.2C273.228 289 273.575 288.713 273.828 288.34C274.095 287.967 274.228 287.513 274.228 286.98C274.228 286.38 274.068 285.88 273.748 285.48C273.428 285.08 273.015 284.733 272.508 284.44C272.002 284.147 271.462 283.867 270.888 283.6C270.382 283.373 269.882 283.133 269.388 282.88C268.895 282.627 268.442 282.34 268.028 282.02C267.628 281.687 267.302 281.293 267.048 280.84C266.808 280.387 266.688 279.84 266.688 279.2C266.688 278.853 266.748 278.48 266.868 278.08C266.988 277.68 267.195 277.3 267.488 276.94C267.795 276.567 268.208 276.267 268.728 276.04C269.262 275.8 269.935 275.68 270.748 275.68C271.255 275.68 271.822 275.753 272.448 275.9C273.088 276.033 273.682 276.3 274.228 276.7L274.148 275.84H275.168V280.24H274.448ZM51.1 314.34C51.6067 314.313 51.9533 314.2 52.14 314C52.3267 313.787 52.4267 313.5 52.44 313.14C52.4667 312.767 52.48 312.347 52.48 311.88V303.24C52.48 302.973 52.4867 302.72 52.5 302.48C52.5133 302.227 52.5267 302 52.54 301.8C52.3 301.813 52.06 301.827 51.82 301.84C51.58 301.853 51.34 301.867 51.1 301.88V301L55.82 300.98C57.02 300.98 58.12 301.12 59.12 301.4C60.12 301.68 60.98 302.113 61.7 302.7C62.4333 303.273 62.9933 304.007 63.38 304.9C63.78 305.78 63.98 306.82 63.98 308.02C63.98 308.94 63.82 309.82 63.5 310.66C63.18 311.5 62.7 312.247 62.06 312.9C61.42 313.54 60.62 314.053 59.66 314.44C58.7133 314.813 57.6133 315 56.36 315H51.1V314.34ZM54.22 312.64C54.22 313 54.2133 313.307 54.2 313.56C54.2 313.813 54.1867 314.027 54.16 314.2C54.52 314.213 54.8467 314.227 55.14 314.24C55.4467 314.24 55.7 314.24 55.9 314.24C56.1133 314.24 56.2467 314.24 56.3 314.24C57.1667 314.24 57.9467 314.08 58.64 313.76C59.3467 313.44 59.9467 313 60.44 312.44C60.9467 311.867 61.3333 311.2 61.6 310.44C61.88 309.667 62.02 308.833 62.02 307.94C62.02 306.673 61.7867 305.58 61.32 304.66C60.8667 303.727 60.1667 303.007 59.22 302.5C58.2733 301.98 57.0667 301.72 55.6 301.72C55.1067 301.72 54.76 301.82 54.56 302.02C54.3733 302.22 54.2667 302.5 54.24 302.86C54.2267 303.22 54.22 303.64 54.22 304.12V312.64ZM72.767 309.82C72.767 309.233 72.687 308.813 72.527 308.56C72.367 308.307 72.1137 308.153 71.767 308.1C71.4204 308.047 70.9604 308.033 70.387 308.06L68.927 308.12V312.7C68.927 313.06 68.9204 313.367 68.907 313.62C68.907 313.873 68.8937 314.087 68.867 314.26L72.687 314.2C73.2737 314.187 73.7804 314.093 74.207 313.92C74.6337 313.733 74.967 313.413 75.207 312.96C75.447 312.507 75.567 311.887 75.567 311.1H76.247L76.127 315H65.807V314.34C66.3137 314.313 66.6604 314.2 66.847 314C67.0337 313.787 67.1337 313.5 67.147 313.14C67.1737 312.767 67.187 312.347 67.187 311.88V303.24C67.187 302.973 67.1937 302.72 67.207 302.48C67.2204 302.227 67.2337 302 67.247 301.8C67.007 301.813 66.767 301.827 66.527 301.84C66.287 301.853 66.047 301.867 65.807 301.88V301H75.427L75.527 304.5H74.867C74.867 303.713 74.747 303.12 74.507 302.72C74.267 302.307 73.9404 302.033 73.527 301.9C73.127 301.753 72.6737 301.687 72.167 301.7L70.447 301.74C69.9537 301.753 69.6004 301.847 69.387 302.02C69.1737 302.193 69.0404 302.453 68.987 302.8C68.947 303.133 68.927 303.573 68.927 304.12V307.32L72.687 307.34L72.547 305.62H73.427V309.82H72.767ZM86.1084 305.24C86.0684 304.6 85.9151 303.993 85.6484 303.42C85.3818 302.847 84.9951 302.38 84.4884 302.02C83.9818 301.66 83.3351 301.48 82.5484 301.48C81.7218 301.48 81.0884 301.713 80.6484 302.18C80.2084 302.647 79.9884 303.193 79.9884 303.82C79.9884 304.38 80.1484 304.853 80.4684 305.24C80.7884 305.613 81.2018 305.947 81.7084 306.24C82.2284 306.52 82.7751 306.793 83.3484 307.06C83.8551 307.287 84.3618 307.533 84.8684 307.8C85.3751 308.053 85.8351 308.347 86.2484 308.68C86.6618 309.013 86.9884 309.413 87.2284 309.88C87.4818 310.333 87.6084 310.88 87.6084 311.52C87.6084 312.253 87.4218 312.907 87.0484 313.48C86.6884 314.053 86.1618 314.507 85.4684 314.84C84.7751 315.16 83.9284 315.32 82.9284 315.32C82.3284 315.32 81.7084 315.233 81.0684 315.06C80.4284 314.887 79.8618 314.633 79.3684 314.3L79.4684 315.16H78.4284L78.3084 310.9H79.0884C79.1551 312.073 79.5618 312.967 80.3084 313.58C81.0551 314.18 81.9551 314.48 83.0084 314.48C83.5284 314.48 84.0084 314.387 84.4484 314.2C84.8884 314 85.2351 313.713 85.4884 313.34C85.7551 312.967 85.8884 312.513 85.8884 311.98C85.8884 311.38 85.7284 310.88 85.4084 310.48C85.0884 310.08 84.6751 309.733 84.1684 309.44C83.6618 309.147 83.1218 308.867 82.5484 308.6C82.0418 308.373 81.5418 308.133 81.0484 307.88C80.5551 307.627 80.1018 307.34 79.6884 307.02C79.2884 306.687 78.9618 306.293 78.7084 305.84C78.4684 305.387 78.3484 304.84 78.3484 304.2C78.3484 303.853 78.4084 303.48 78.5284 303.08C78.6484 302.68 78.8551 302.3 79.1484 301.94C79.4551 301.567 79.8684 301.267 80.3884 301.04C80.9218 300.8 81.5951 300.68 82.4084 300.68C82.9151 300.68 83.4818 300.753 84.1084 300.9C84.7484 301.033 85.3418 301.3 85.8884 301.7L85.8084 300.84H86.8284V305.24H86.1084ZM94.0961 301.66C93.6028 301.673 93.2561 301.787 93.0561 302C92.8694 302.213 92.7628 302.5 92.7361 302.86C92.7228 303.22 92.7161 303.64 92.7161 304.12V312.62C92.7161 312.98 92.7094 313.293 92.6961 313.56C92.6961 313.813 92.6828 314.027 92.6561 314.2C92.8961 314.187 93.1361 314.173 93.3761 314.16C93.6161 314.147 93.8561 314.133 94.0961 314.12V315H89.5961V314.34C90.1028 314.313 90.4494 314.2 90.6361 314C90.8228 313.787 90.9228 313.5 90.9361 313.14C90.9628 312.767 90.9761 312.347 90.9761 311.88V303.24C90.9761 302.973 90.9828 302.72 90.9961 302.48C91.0094 302.227 91.0228 302 91.0361 301.8C90.7961 301.813 90.5561 301.827 90.3161 301.84C90.0761 301.853 89.8361 301.867 89.5961 301.88V301H94.0961V301.66ZM102.76 315.32C101.426 315.32 100.246 315.04 99.2195 314.48C98.1929 313.92 97.3929 313.113 96.8195 312.06C96.2462 311.007 95.9595 309.753 95.9595 308.3C95.9595 307.353 96.0995 306.433 96.3795 305.54C96.6729 304.633 97.1062 303.813 97.6795 303.08C98.2662 302.347 98.9929 301.767 99.8595 301.34C100.74 300.9 101.76 300.68 102.92 300.68C103.4 300.68 103.886 300.727 104.38 300.82C104.873 300.9 105.346 301.027 105.8 301.2C106.266 301.36 106.686 301.553 107.06 301.78L106.98 300.82H108.08V305.4H107.36C107.306 304.56 107.08 303.853 106.68 303.28C106.293 302.693 105.786 302.247 105.16 301.94C104.533 301.633 103.833 301.48 103.06 301.48C102.353 301.48 101.686 301.64 101.06 301.96C100.446 302.267 99.8995 302.707 99.4195 303.28C98.9529 303.84 98.5862 304.507 98.3195 305.28C98.0529 306.053 97.9195 306.907 97.9195 307.84C97.9195 309.093 98.1462 310.213 98.5995 311.2C99.0529 312.187 99.6795 312.96 100.48 313.52C101.293 314.08 102.226 314.36 103.28 314.36C103.64 314.36 104.013 314.327 104.4 314.26C104.8 314.193 105.193 314.087 105.58 313.94C105.98 313.78 106.353 313.587 106.7 313.36V310.92C106.7 310.6 106.7 310.28 106.7 309.96C106.7 309.627 106.7 309.3 106.7 308.98C106.473 308.993 106.24 309.007 106 309.02C105.76 309.033 105.526 309.047 105.3 309.06V308.18H109.82V308.84C109.446 308.84 109.16 308.94 108.96 309.14C108.76 309.327 108.62 309.56 108.54 309.84C108.46 310.107 108.413 310.373 108.4 310.64C108.386 310.893 108.38 311.087 108.38 311.22V314.28H107.84C107.626 314.28 107.333 314.32 106.96 314.4C106.586 314.48 106.16 314.613 105.68 314.8C105.266 314.96 104.786 315.087 104.24 315.18C103.693 315.273 103.2 315.32 102.76 315.32ZM122.274 315.32L114.294 304.6C114.174 304.44 114.054 304.287 113.934 304.14C113.828 303.98 113.714 303.82 113.594 303.66H113.574L113.634 312.22C113.634 312.553 113.634 312.887 113.634 313.22C113.634 313.553 113.621 313.88 113.594 314.2C113.834 314.187 114.074 314.173 114.314 314.16C114.554 314.147 114.794 314.133 115.034 314.12V315H111.374V314.34C111.788 314.34 112.081 314.253 112.254 314.08C112.441 313.893 112.561 313.68 112.614 313.44C112.668 313.187 112.694 312.96 112.694 312.76L112.714 303.14C112.714 302.913 112.714 302.687 112.714 302.46C112.714 302.233 112.714 302.013 112.714 301.8C112.501 301.813 112.281 301.827 112.054 301.84C111.828 301.853 111.601 301.867 111.374 301.88V301H113.754L121.254 311.04C121.428 311.267 121.594 311.493 121.754 311.72C121.928 311.947 122.101 312.173 122.274 312.4H122.294L122.314 303.24C122.314 302.973 122.321 302.72 122.334 302.48C122.348 302.227 122.361 302 122.374 301.8C122.134 301.813 121.894 301.827 121.654 301.84C121.414 301.853 121.174 301.867 120.934 301.88V301H124.614V301.66C124.121 301.673 123.781 301.787 123.594 302C123.408 302.213 123.308 302.5 123.294 302.86C123.281 303.22 123.274 303.64 123.274 304.12L123.234 315.32H122.274Z" fill="white"/>
</svg>
