<svg width="250" height="125" viewBox="0 0 250 125" fill="none" xmlns="http://www.w3.org/2000/svg">
<path d="M0 125C0 55.9644 55.9644 0 125 0C194.036 0 250 55.9644 250 125H0Z" fill="#53463D"/>
<path d="M125 0.5C193.593 0.5 249.228 55.9705 249.497 124.5H0.50293C0.772372 55.9705 56.4073 0.5 125 0.5Z" stroke="white" stroke-opacity="0.1"/>
<path d="M101.481 70.192C101.449 69.68 101.326 69.1947 101.113 68.736C100.899 68.2773 100.59 67.904 100.185 67.616C99.7792 67.328 99.2618 67.184 98.6325 67.184C97.9712 67.184 97.4645 67.3707 97.1125 67.744C96.7605 68.1173 96.5845 68.5547 96.5845 69.056C96.5845 69.504 96.7125 69.8827 96.9685 70.192C97.2245 70.4907 97.5552 70.7573 97.9605 70.992C98.3765 71.216 98.8138 71.4347 99.2725 71.648C99.6778 71.8293 100.083 72.0267 100.489 72.24C100.894 72.4427 101.262 72.6773 101.593 72.944C101.923 73.2107 102.185 73.5307 102.377 73.904C102.579 74.2667 102.681 74.704 102.681 75.216C102.681 75.8027 102.531 76.3253 102.233 76.784C101.945 77.2427 101.523 77.6053 100.969 77.872C100.414 78.128 99.7365 78.256 98.9365 78.256C98.4565 78.256 97.9605 78.1867 97.4485 78.048C96.9365 77.9093 96.4832 77.7067 96.0885 77.44L96.1685 78.128H95.3365L95.2405 74.72H95.8645C95.9178 75.6587 96.2432 76.3733 96.8405 76.864C97.4378 77.344 98.1578 77.584 99.0005 77.584C99.4165 77.584 99.8005 77.5093 100.153 77.36C100.505 77.2 100.782 76.9707 100.985 76.672C101.198 76.3733 101.305 76.0107 101.305 75.584C101.305 75.104 101.177 74.704 100.921 74.384C100.665 74.064 100.334 73.7867 99.9285 73.552C99.5232 73.3173 99.0912 73.0933 98.6325 72.88C98.2272 72.6987 97.8272 72.5067 97.4325 72.304C97.0378 72.1013 96.6752 71.872 96.3445 71.616C96.0245 71.3493 95.7632 71.0347 95.5605 70.672C95.3685 70.3093 95.2725 69.872 95.2725 69.36C95.2725 69.0827 95.3205 68.784 95.4165 68.464C95.5125 68.144 95.6778 67.84 95.9125 67.552C96.1578 67.2533 96.4885 67.0133 96.9045 66.832C97.3312 66.64 97.8698 66.544 98.5205 66.544C98.9258 66.544 99.3792 66.6027 99.8805 66.72C100.393 66.8267 100.867 67.04 101.305 67.36L101.241 66.672H102.057V70.192H101.481ZM113.119 70.368C113.012 69.3653 112.66 68.5867 112.063 68.032C111.476 67.4773 110.719 67.2 109.791 67.2C109.225 67.2 108.692 67.3227 108.191 67.568C107.7 67.8027 107.268 68.144 106.895 68.592C106.521 69.04 106.228 69.5787 106.015 70.208C105.801 70.8373 105.695 71.5467 105.695 72.336C105.695 73.3387 105.887 74.224 106.271 74.992C106.655 75.76 107.172 76.3573 107.823 76.784C108.473 77.2107 109.193 77.424 109.983 77.424C110.676 77.424 111.359 77.2693 112.031 76.96C112.703 76.64 113.252 76.1813 113.679 75.584L114.095 75.92C113.636 76.5493 113.14 77.0347 112.607 77.376C112.073 77.7173 111.54 77.9467 111.007 78.064C110.484 78.192 110.004 78.256 109.567 78.256C108.767 78.256 108.031 78.112 107.359 77.824C106.697 77.536 106.121 77.136 105.631 76.624C105.151 76.1013 104.777 75.4987 104.511 74.816C104.255 74.1227 104.127 73.376 104.127 72.576C104.127 71.8187 104.239 71.0827 104.463 70.368C104.697 69.6533 105.044 69.008 105.503 68.432C105.961 67.856 106.537 67.3973 107.231 67.056C107.935 66.7147 108.751 66.544 109.679 66.544C110.276 66.544 110.841 66.624 111.375 66.784C111.908 66.944 112.42 67.1893 112.911 67.52L112.831 66.656H113.695V70.368H113.119ZM115.458 78V77.472C115.863 77.4507 116.141 77.36 116.29 77.2C116.439 77.0293 116.519 76.8 116.53 76.512C116.551 76.2133 116.562 75.8773 116.562 75.504V68.592C116.562 68.3787 116.567 68.176 116.578 67.984C116.589 67.7813 116.599 67.6 116.61 67.44C116.418 67.4507 116.226 67.4613 116.034 67.472C115.842 67.4827 115.65 67.4933 115.458 67.504V66.8C116.055 66.7893 116.658 66.7787 117.266 66.768C117.885 66.7573 118.503 66.7627 119.122 66.784C120.157 66.7947 120.989 66.9173 121.618 67.152C122.258 67.376 122.727 67.7013 123.026 68.128C123.325 68.544 123.474 69.0507 123.474 69.648C123.485 70.064 123.405 70.4907 123.234 70.928C123.074 71.3547 122.775 71.7387 122.338 72.08C121.911 72.4213 121.293 72.6773 120.482 72.848C120.695 72.9973 120.882 73.1893 121.042 73.424C121.202 73.6587 121.383 73.9307 121.586 74.24L122.674 75.952C122.855 76.24 123.031 76.5013 123.202 76.736C123.373 76.96 123.57 77.1413 123.794 77.28C124.018 77.408 124.295 77.472 124.626 77.472V78H122.61C122.301 77.7227 122.039 77.4453 121.826 77.168C121.623 76.8907 121.41 76.576 121.186 76.224L120.114 74.512C119.975 74.288 119.815 74.032 119.634 73.744C119.463 73.4453 119.266 73.1947 119.042 72.992C118.871 73.0027 118.69 73.008 118.498 73.008C118.317 73.008 118.135 73.0027 117.954 72.992V76.096C117.954 76.384 117.949 76.6347 117.938 76.848C117.938 77.0507 117.927 77.2213 117.906 77.36C118.034 77.3493 118.162 77.344 118.29 77.344C118.418 77.3333 118.546 77.3227 118.674 77.312C118.802 77.3013 118.93 77.296 119.058 77.296V78H115.458ZM118.946 72.4C119.533 72.3787 120.045 72.2827 120.482 72.112C120.93 71.9413 121.282 71.6693 121.538 71.296C121.794 70.9227 121.922 70.432 121.922 69.824C121.922 69.4187 121.863 69.0667 121.746 68.768C121.639 68.4587 121.469 68.2027 121.234 68C120.999 67.7973 120.701 67.648 120.338 67.552C119.975 67.4453 119.549 67.392 119.058 67.392C118.663 67.392 118.386 67.472 118.226 67.632C118.077 67.792 117.991 68.016 117.97 68.304C117.959 68.5813 117.954 68.912 117.954 69.296V72.368C118.125 72.3787 118.285 72.3893 118.434 72.4C118.594 72.4107 118.765 72.4107 118.946 72.4ZM131.057 78.256C130.044 78.256 129.174 78.0853 128.449 77.744C127.724 77.4027 127.132 76.9493 126.673 76.384C126.225 75.808 125.894 75.1733 125.681 74.48C125.468 73.7867 125.361 73.0933 125.361 72.4C125.361 71.728 125.473 71.0507 125.697 70.368C125.921 69.6747 126.262 69.04 126.721 68.464C127.19 67.888 127.772 67.424 128.465 67.072C129.169 66.72 129.99 66.544 130.929 66.544C131.91 66.544 132.758 66.72 133.473 67.072C134.188 67.424 134.774 67.8933 135.233 68.48C135.702 69.056 136.049 69.6853 136.273 70.368C136.508 71.0507 136.625 71.728 136.625 72.4C136.625 73.0613 136.513 73.7387 136.289 74.432C136.065 75.1147 135.718 75.7493 135.249 76.336C134.79 76.912 134.214 77.376 133.521 77.728C132.828 78.08 132.006 78.256 131.057 78.256ZM131.089 77.6C131.75 77.6 132.326 77.4613 132.817 77.184C133.308 76.896 133.713 76.5173 134.033 76.048C134.364 75.568 134.609 75.04 134.769 74.464C134.94 73.8773 135.025 73.2907 135.025 72.704C135.025 72.0427 134.934 71.3867 134.753 70.736C134.572 70.0853 134.305 69.4933 133.953 68.96C133.601 68.4267 133.164 68 132.641 67.68C132.129 67.3493 131.542 67.184 130.881 67.184C130.22 67.184 129.638 67.328 129.137 67.616C128.646 67.904 128.236 68.288 127.905 68.768C127.585 69.2373 127.34 69.7653 127.169 70.352C127.009 70.928 126.929 71.5147 126.929 72.112C126.929 72.6987 127.009 73.312 127.169 73.952C127.34 74.592 127.596 75.1893 127.937 75.744C128.278 76.2987 128.71 76.7467 129.233 77.088C129.756 77.4293 130.374 77.6 131.089 77.6ZM138.068 78V77.472C138.473 77.4507 138.75 77.36 138.9 77.2C139.049 77.0293 139.129 76.8 139.14 76.512C139.161 76.2133 139.172 75.8773 139.172 75.504V68.592C139.172 68.3787 139.177 68.176 139.188 67.984C139.198 67.7813 139.209 67.6 139.22 67.44C139.028 67.4507 138.836 67.4613 138.644 67.472C138.452 67.4827 138.26 67.4933 138.068 67.504V66.8H141.668V67.328C141.273 67.3387 140.996 67.4293 140.836 67.6C140.686 67.7707 140.601 68 140.58 68.288C140.569 68.576 140.564 68.912 140.564 69.296V76.16C140.564 76.448 140.558 76.6933 140.548 76.896C140.548 77.0987 140.537 77.2693 140.516 77.408L143.508 77.36C144.18 77.3493 144.686 77.136 145.028 76.72C145.38 76.304 145.556 75.6267 145.556 74.688H146.1L146.003 78H138.068ZM147.318 78V77.472C147.723 77.4507 148 77.36 148.15 77.2C148.299 77.0293 148.379 76.8 148.39 76.512C148.411 76.2133 148.422 75.8773 148.422 75.504V68.592C148.422 68.3787 148.427 68.176 148.438 67.984C148.448 67.7813 148.459 67.6 148.47 67.44C148.278 67.4507 148.086 67.4613 147.894 67.472C147.702 67.4827 147.51 67.4933 147.318 67.504V66.8H150.918V67.328C150.523 67.3387 150.246 67.4293 150.086 67.6C149.936 67.7707 149.851 68 149.83 68.288C149.819 68.576 149.814 68.912 149.814 69.296V76.16C149.814 76.448 149.808 76.6933 149.798 76.896C149.798 77.0987 149.787 77.2693 149.766 77.408L152.758 77.36C153.43 77.3493 153.936 77.136 154.278 76.72C154.63 76.304 154.806 75.6267 154.806 74.688H155.35L155.253 78H147.318Z" fill="white" fill-opacity="0.6"/>
</svg>
