<svg width="1366" height="368" viewBox="0 0 1366 368" fill="none" xmlns="http://www.w3.org/2000/svg">
<path d="M273.397 368L73.8965 100C70.8965 96 67.8965 92.1667 64.8965 88.5C62.2298 84.5 59.3965 80.5 56.3965 76.5H55.8965L57.3965 290.5C57.3965 298.833 57.3965 307.167 57.3965 315.5C57.3965 323.833 57.0632 332 56.3965 340C62.3965 339.667 68.3965 339.333 74.3965 339C80.3965 338.667 86.3965 338.333 92.3965 338V360H0.896486V343.5C11.2298 343.5 18.5632 341.333 22.8965 337C27.5632 332.333 30.5632 327 31.8965 321C33.2298 314.667 33.8965 309 33.8965 304L34.3965 63.5C34.3965 57.8333 34.3965 52.1667 34.3965 46.5C34.3965 40.8333 34.3965 35.3333 34.3965 30C29.0632 30.3333 23.5632 30.6666 17.8965 31C12.2298 31.3333 6.56315 31.6667 0.896486 32V9.99998H60.3965L247.896 261C252.23 266.667 256.396 272.333 260.397 278C264.73 283.667 269.063 289.333 273.397 295H273.897L274.397 66C274.397 59.3333 274.563 53 274.896 47C275.23 40.6666 275.563 35 275.897 30C269.897 30.3333 263.897 30.6666 257.897 31C251.897 31.3333 245.896 31.6667 239.896 32V9.99998H331.897V26.5C319.563 26.8333 311.063 29.6667 306.397 35C301.73 40.3333 299.23 47.5 298.897 56.5C298.563 65.5 298.396 76 298.396 88L297.397 368H273.397ZM551.814 368C520.148 368 492.981 362.667 470.314 352C447.648 341.333 429.148 327.167 414.814 309.5C400.814 291.5 390.481 271.667 383.814 250C377.148 228.333 373.814 206.667 373.814 185C373.814 164 377.314 142.833 384.314 121.5C391.314 99.8333 401.981 80 416.314 62C430.981 44 449.148 29.5 470.814 18.5C492.814 7.49999 518.481 1.99999 547.814 1.99999C578.481 1.99999 604.981 7.49999 627.314 18.5C649.648 29.5 667.981 44.1666 682.314 62.5C696.981 80.5 707.814 100.167 714.814 121.5C722.148 142.833 725.814 164 725.814 185C725.814 205.667 722.314 226.833 715.314 248.5C708.314 269.833 697.481 289.667 682.814 308C668.481 326 650.481 340.5 628.814 351.5C607.148 362.5 581.481 368 551.814 368ZM552.814 347.5C573.481 347.5 591.481 343.167 606.814 334.5C622.148 325.5 634.814 313.667 644.814 299C655.148 284 662.814 267.5 667.814 249.5C673.148 231.167 675.814 212.833 675.814 194.5C675.814 173.833 672.981 153.333 667.314 133C661.648 112.667 653.314 94.1667 642.314 77.5C631.314 60.8333 617.648 47.5 601.314 37.5C585.314 27.1666 566.981 22 546.314 22C525.648 22 507.481 26.5 491.814 35.5C476.481 44.5 463.648 56.5 453.314 71.5C443.314 86.1666 435.648 102.667 430.314 121C425.314 139 422.814 157.333 422.814 176C422.814 194.333 425.314 213.5 430.314 233.5C435.648 253.5 443.648 272.167 454.314 289.5C464.981 306.833 478.481 320.833 494.814 331.5C511.148 342.167 530.481 347.5 552.814 347.5ZM902.928 365L789.428 99C782.094 82 776.928 68.3333 773.928 58C770.928 47.3333 768.928 38.3333 767.928 31C763.261 31.3333 758.594 31.5 753.928 31.5C749.261 31.5 744.594 31.6667 739.928 32V9.99998H855.928L855.428 27C838.761 28 828.761 33.1666 825.428 42.5C822.094 51.5 823.761 64.3333 830.428 81C838.428 100.667 846.094 119.667 853.428 138C860.761 156.333 868.928 176.167 877.928 197.5C885.928 216.167 893.594 234.167 900.928 251.5C908.594 268.5 914.428 282.667 918.428 294H919.428C923.094 282.333 926.761 271.167 930.428 260.5C934.428 249.833 939.094 237.167 944.428 222.5C954.428 194.5 962.761 170.833 969.428 151.5C976.428 132.167 982.428 115.667 987.428 102C992.428 88.3333 996.594 76.6666 999.928 67C1002.93 58.3333 1005.59 51 1007.93 45C1010.26 39 1012.43 34 1014.43 30C1008.09 30.3333 1001.76 30.6666 995.428 31C989.094 31.3333 982.594 31.6667 975.928 32V9.99998H1077.43V26.5C1062.76 27.1667 1051.43 31 1043.43 38C1035.76 45 1028.76 57.5 1022.43 75.5C1021.76 77.1667 1020.93 79.5 1019.93 82.5C1018.93 85.1666 1017.26 89.6667 1014.93 96C1012.59 102.333 1009.26 111.667 1004.93 124C1000.59 136 994.594 152.333 986.928 173C979.594 193.667 970.094 219.667 958.428 251C947.094 282.333 933.261 320.333 916.928 365H902.928ZM1043.62 360V343.5C1053.62 343.5 1061.28 340.833 1066.62 335.5C1071.95 330.167 1076.28 322.833 1079.62 313.5C1083.28 304.167 1087.45 293.333 1092.12 281L1195.12 0.499979H1207.12L1318.62 285C1321.28 292 1324.28 301 1327.62 312C1330.95 323 1332.28 332.333 1331.62 340C1337.28 339.667 1342.95 339.333 1348.62 339C1354.28 338.667 1359.95 338.333 1365.62 338V360H1251.12V343.5C1263.78 343.167 1272.12 340.333 1276.12 335C1280.12 329.667 1281.62 323.333 1280.62 316C1279.62 308.667 1277.95 302 1275.62 296L1258.12 249L1128.12 252L1110.62 305.5C1108.28 313.5 1106.12 319.833 1104.12 324.5C1102.45 329.167 1100.45 334.333 1098.12 340C1104.78 339.667 1111.28 339.333 1117.62 339C1124.28 338.667 1130.78 338.333 1137.12 338V360H1043.62ZM1135.62 230.5H1251.12L1215.62 135C1211.95 124.667 1208.12 114.5 1204.12 104.5C1200.45 94.1666 1196.78 83.8333 1193.12 73.5H1192.12C1188.78 82.8333 1185.28 92.1667 1181.62 101.5C1178.28 110.833 1174.78 120.333 1171.12 130L1135.62 230.5Z" fill="url(#paint0_linear_2145_450)"/>
<defs>
<linearGradient id="paint0_linear_2145_450" x1="-54" y1="185" x2="1386" y2="185" gradientUnits="userSpaceOnUse">
<stop stop-color="#53463D"/>
<stop offset="1" stop-color="#BDAA9E"/>
</linearGradient>
</defs>
</svg>
