<svg width="24" height="26" viewBox="0 0 24 26" fill="none" xmlns="http://www.w3.org/2000/svg">
<path d="M1.83819 0.298218C1.04139 0.298218 0.40625 0.933249 0.40625 1.7295C0.40625 2.52575 1.04139 3.16089 1.83819 3.16089C2.63498 3.16089 3.27007 2.52575 3.27007 1.7295C3.27007 0.933249 2.63493 0.298218 1.83819 0.298218ZM22.1618 0.298218C21.3651 0.298218 20.7299 0.933249 20.7299 1.7295C20.7299 2.52575 21.3651 3.16089 22.1618 3.16089C22.9586 3.16089 23.5938 2.52575 23.5938 1.7295C23.5938 0.933249 22.9586 0.298218 22.1618 0.298218ZM1.83819 4.14526C1.04139 4.14526 0.40625 4.7803 0.40625 5.57655C0.40625 6.3728 1.04139 7.00783 1.83819 7.00783C2.63498 7.00783 3.27007 6.3728 3.27007 5.57655C3.27007 4.7803 2.63493 4.14526 1.83819 4.14526ZM22.1618 4.14526C21.3651 4.14526 20.7299 4.7803 20.7299 5.57655C20.7299 6.3728 21.3651 7.00783 22.1618 7.00783C22.9586 7.00783 23.5938 6.3728 23.5938 5.57655C23.5938 4.7803 22.9586 4.14526 22.1618 4.14526ZM2.80025 7.9922C2.00345 7.9922 1.36831 8.62734 1.36831 9.42359C1.36831 10.2198 2.00345 10.8548 2.8002 10.8548C3.59699 10.8548 4.23224 10.2198 4.23224 9.42359C4.23224 8.62734 3.59705 7.9922 2.80025 7.9922ZM21.1998 7.9922C20.403 7.9922 19.7678 8.62734 19.7678 9.42359C19.7678 10.2198 20.403 10.8548 21.1998 10.8548C21.9966 10.8548 22.6317 10.2198 22.6317 9.42359C22.6317 8.62734 21.9965 7.9922 21.1998 7.9922ZM4.72437 11.8392C3.92758 11.8392 3.29233 12.4743 3.29233 13.2705C3.29233 14.0667 3.92763 14.7019 4.72437 14.7019C5.52117 14.7019 6.15631 14.0667 6.15631 13.2705C6.15631 12.4742 5.52112 11.8392 4.72437 11.8392ZM19.2755 11.8392C18.4787 11.8392 17.8436 12.4743 17.8436 13.2705C17.8436 14.0667 18.4788 14.7019 19.2755 14.7019C20.0723 14.7019 20.7076 14.0667 20.7076 13.2705C20.7076 12.4742 20.0723 11.8392 19.2755 11.8392ZM8.15175 14.1835C7.35495 14.1835 6.7197 14.8186 6.7197 15.6148C6.7197 16.411 7.35501 17.046 8.15175 17.046C8.94855 17.046 9.58363 16.411 9.58363 15.6148C9.58363 14.8186 8.94849 14.1835 8.15175 14.1835ZM15.8481 14.1835C15.0513 14.1835 14.4163 14.8186 14.4163 15.6148C14.4163 16.411 15.0514 17.046 15.8481 17.046C16.6449 17.046 17.2802 16.411 17.2802 15.6148C17.2802 14.8186 16.6449 14.1835 15.8481 14.1835ZM12 15.1453C11.2032 15.1453 10.5681 15.7803 10.5681 16.5765C10.5681 17.3727 11.2033 18.0079 12 18.0079C12.7967 18.0079 13.4319 17.3727 13.4319 16.5765C13.4319 15.7802 12.7967 15.1453 12 15.1453ZM12 18.9923C10.1406 18.9923 8.64399 20.4885 8.64399 22.347C8.64399 24.2056 10.1406 25.7019 12 25.7019C13.8594 25.7019 15.3562 24.2056 15.3562 22.347C15.3562 20.4885 13.8594 18.9923 12 18.9923Z" fill="white"/>
</svg>
