<svg width="20" height="20" viewBox="0 0 20 20" fill="none" xmlns="http://www.w3.org/2000/svg">
<path d="M11.5325 0.925148C11.3313 0.723949 11.0924 0.564349 10.8296 0.45546C10.5667 0.346572 10.2849 0.290527 10.0004 0.290527C9.71588 0.290527 9.43413 0.346572 9.17125 0.45546C8.90838 0.564349 8.66952 0.723949 8.46833 0.925148L6.81833 2.57515C6.61713 2.77634 6.45753 3.0152 6.34864 3.27807C6.23975 3.54095 6.18371 3.8227 6.18371 4.10723C6.18371 4.39177 6.23975 4.67351 6.34864 4.93639C6.45753 5.19927 6.61713 5.43812 6.81833 5.63931L8.46833 7.28931C8.87463 7.6954 9.42556 7.92352 10 7.92352C10.5744 7.92352 11.1254 7.6954 11.5317 7.28931L13.1817 5.63931C13.3829 5.43812 13.5425 5.19927 13.6514 4.93639C13.7602 4.67351 13.8163 4.39177 13.8163 4.10723C13.8163 3.8227 13.7602 3.54095 13.6514 3.27807C13.5425 3.0152 13.3829 2.77634 13.1817 2.57515L11.5325 0.925148ZM5.64 6.81848C5.4388 6.61728 5.19995 6.45768 4.93707 6.34879C4.6742 6.2399 4.39245 6.18386 4.10791 6.18386C3.82338 6.18386 3.54163 6.2399 3.27875 6.34879C3.01588 6.45768 2.77702 6.61728 2.57583 6.81848L0.92583 8.46848C0.519745 8.87478 0.291626 9.42571 0.291626 10.0001C0.291626 10.5746 0.519745 11.1255 0.92583 11.5318L2.57583 13.1818C2.77702 13.383 3.01588 13.5426 3.27875 13.6515C3.54163 13.7604 3.82338 13.8164 4.10791 13.8164C4.39245 13.8164 4.6742 13.7604 4.93707 13.6515C5.19995 13.5426 5.4388 13.383 5.64 13.1818L7.29 11.5318C7.69608 11.1255 7.9242 10.5746 7.9242 10.0001C7.9242 9.42571 7.69608 8.87478 7.29 8.46848L5.64 6.81848ZM11.5325 12.711C11.3313 12.5098 11.0924 12.3502 10.8296 12.2413C10.5667 12.1324 10.2849 12.0764 10.0004 12.0764C9.71588 12.0764 9.43413 12.1324 9.17125 12.2413C8.90838 12.3502 8.66952 12.5098 8.46833 12.711L6.81833 14.361C6.61713 14.5622 6.45753 14.801 6.34864 15.0639C6.23975 15.3268 6.18371 15.6085 6.18371 15.8931C6.18371 16.1776 6.23975 16.4593 6.34864 16.7222C6.45753 16.9851 6.61713 17.224 6.81833 17.4251L8.46833 19.0751C8.87463 19.4812 9.42556 19.7094 10 19.7094C10.5744 19.7094 11.1254 19.4812 11.5317 19.0751L13.1817 17.4251C13.3829 17.224 13.5425 16.9851 13.6514 16.7222C13.7602 16.4593 13.8163 16.1776 13.8163 15.8931C13.8163 15.6085 13.7602 15.3268 13.6514 15.0639C13.5425 14.801 13.3829 14.5622 13.1817 14.361L11.5325 12.711ZM17.425 6.81848C17.2238 6.61728 16.985 6.45768 16.7221 6.34879C16.4592 6.2399 16.1775 6.18386 15.8929 6.18386C15.6084 6.18386 15.3266 6.2399 15.0638 6.34879C14.8009 6.45768 14.562 6.61728 14.3608 6.81848L12.7108 8.46848C12.3047 8.87478 12.0766 9.42571 12.0766 10.0001C12.0766 10.5746 12.3047 11.1255 12.7108 11.5318L14.3608 13.1818C14.562 13.383 14.8009 13.5426 15.0638 13.6515C15.3266 13.7604 15.6084 13.8164 15.8929 13.8164C16.1775 13.8164 16.4592 13.7604 16.7221 13.6515C16.985 13.5426 17.2238 13.383 17.425 13.1818L19.075 11.5318C19.4811 11.1255 19.7092 10.5746 19.7092 10.0001C19.7092 9.42571 19.4811 8.87478 19.075 8.46848L17.425 6.81848Z" fill="#FFD59B"/>
</svg>
